<svg width="42" height="42" viewBox="0 0 42 42" fill="none" xmlns="http://www.w3.org/2000/svg">
<path fill-rule="evenodd" clip-rule="evenodd" d="M42 21C42 32.598 32.598 42 21 42C9.40202 42 0 32.598 0 21C0 9.40202 9.40202 0 21 0C32.598 0 42 9.40202 42 21ZM15.2103 16.4718C15.2103 15.74 15.8129 15.2079 16.6427 15.2079C17.4462 15.2079 18.0369 15.7224 18.0752 16.4568C18.0752 17.2193 17.4725 17.7616 16.6427 17.7616C15.8273 17.7616 15.2103 17.2061 15.2103 16.4718ZM15.4471 18.2759C15.3155 18.2759 15.2079 18.391 15.2079 18.5318V25.9521C15.2079 26.0928 15.3155 26.2079 15.4471 26.2079H17.8384C17.9699 26.2079 18.0775 26.0928 18.0775 25.9521V18.5318C18.0775 18.391 17.9699 18.2759 17.8384 18.2759H15.4471ZM18.7949 18.5318C18.7949 18.391 18.9025 18.2759 19.034 18.2759H21.4253C21.5568 18.2759 21.6644 18.391 21.6644 18.5318V18.9131C22.0494 18.6239 22.6853 18.2759 23.527 18.2759C25.3779 18.2759 26.2079 19.9467 26.2079 21.6022V25.9521C26.2079 26.0928 26.1003 26.2079 25.9688 26.2079H23.8166C23.6846 26.2079 23.5775 26.0933 23.5775 25.9521V21.986C23.5775 21.3796 23.1421 20.8857 22.5873 20.8396C22.5593 20.8346 22.5314 20.8346 22.5033 20.8346H22.5014H22.4995C22.4714 20.8346 22.4435 20.8346 22.4155 20.8396C21.8607 20.8857 21.4253 21.3796 21.4253 21.986V22.05V22.114V25.9521C21.4253 26.0933 21.3182 26.2079 21.1862 26.2079H19.034C18.9025 26.2079 18.7949 26.0928 18.7949 25.9521V18.5318Z" fill="white"/>
</svg>
