<svg width="42" height="42" viewBox="0 0 42 42" fill="none" xmlns="http://www.w3.org/2000/svg">
<path fill-rule="evenodd" clip-rule="evenodd" d="M42 21C42 32.598 32.598 42 21 42C9.40202 42 0 32.598 0 21C0 9.40202 9.40202 0 21 0C32.598 0 42 9.40202 42 21ZM22.6556 18.9H25L24.6947 21.6972L22.6556 21.6979V28H19.9952V21.6993L18 21.7V18.9H19.9952V17.2893C19.9952 15.1599 21.3121 14 23.1165 14C23.725 13.9986 24.3329 14.0308 24.9375 14.0966V16.3226H23.6951C22.7114 16.3226 22.6556 16.7776 22.6556 17.5V18.9Z" fill="white"/>
</svg>
