<svg width="42" height="42" viewBox="0 0 42 42" fill="none" xmlns="http://www.w3.org/2000/svg">
<path fill-rule="evenodd" clip-rule="evenodd" d="M21 42C32.598 42 42 32.598 42 21C42 9.40202 32.598 0 21 0C9.40202 0 0 9.40202 0 21C0 32.598 9.40202 42 21 42ZM17.2444 15.7479C13.8719 15.7479 11.1372 18.4345 11.1372 21.7479C11.1372 25.0612 13.8719 27.7479 17.2444 27.7479C20.6169 27.7479 23.3515 25.0612 23.3515 21.7479C23.3515 21.3362 23.3057 20.9345 23.226 20.5479L23.1921 20.4145H17.2444V22.4145H21.3158C20.9918 24.3062 19.2614 25.7479 17.2444 25.7479C14.9949 25.7479 13.1729 23.9579 13.1729 21.7479C13.1729 19.5379 14.9949 17.7479 17.2444 17.7479C18.2622 17.7479 19.1902 18.1179 19.9044 18.7245L21.3633 17.3212C20.2776 16.3445 18.8322 15.7479 17.2444 15.7479ZM26.7444 20.4145V18.4145H28.1015V20.4145H30.1372V21.7479H28.1015V23.7479H26.7444V21.7479H24.7087V20.4145H26.7444Z" fill="white"/>
</svg>
