<svg width="1410" height="60" viewBox="0 0 1410 60" fill="none" xmlns="http://www.w3.org/2000/svg">
<path fill-rule="evenodd" clip-rule="evenodd" d="M1321.23 16.1643L1321.34 16.1094C1321.57 15.9983 1321.71 15.7434 1321.73 15.4263C1321.75 15.1195 1321.65 14.8646 1321.44 14.7253L1321.34 14.6557L1320.55 14.5816C1319.77 14.5104 1319.77 14.5104 1319.77 12.4846V3.04911H1321.33C1322.34 3.04911 1323.04 3.18989 1323.41 3.4685C1323.47 3.51888 1323.63 3.82861 1323.73 4.63923L1323.75 4.78742L1323.84 4.90005C1324.04 5.13716 1324.36 5.19051 1324.59 5.16235C1324.85 5.14349 1325.08 4.99248 1325.2 4.76223L1325.26 4.63182L1325.25 4.48955C1325.19 3.92642 1325.34 2.29184 1325.54 1.51678L1325.59 1.32858L1325.5 1.15667C1325.31 0.780259 1324.79 0.741729 1324.51 0.860284L1324.35 0.924007L1324.26 1.0722L1324.26 1.07248C1324.08 1.39083 1324.08 1.40416 1323.09 1.40416H1314.68C1313.77 1.40416 1313.56 1.36118 1313.53 1.17001L1313.5 1.01441L1313.39 0.90326C1313.11 0.629101 1312.57 0.710608 1312.37 0.848428L1312.2 0.966983L1312.16 1.17445C1312.02 1.98952 1311.72 3.27733 1311.4 4.18279L1311.33 4.38582L1311.43 4.57699C1311.55 4.80765 1311.77 4.97269 1312.02 5.02898C1312.26 5.08826 1312.52 5.03935 1312.7 4.89857L1312.81 4.82002L1312.86 4.69851L1312.86 4.69422C1313.06 4.2307 1313.24 3.82887 1313.66 3.43441C1314.08 3.04911 1315.37 3.04911 1315.85 3.04911H1317.1V12.4846C1317.1 14.5049 1317.07 14.5075 1316.28 14.577L1316.28 14.5771L1315.42 14.6512L1315.32 14.7134C1315.09 14.8719 1314.96 15.1482 1314.98 15.4337C1315 15.7404 1315.14 15.9909 1315.36 16.105L1315.47 16.1613L1315.6 16.1583C1316.55 16.1221 1317.49 16.1013 1318.44 16.0961C1319.27 16.0961 1320 16.1198 1321.11 16.1583L1321.23 16.1613L1321.23 16.1643ZM1345.81 16.1628L1345.7 16.108H1345.7C1345.5 16.0087 1345.36 15.7997 1345.32 15.5344C1345.26 15.265 1345.34 14.9863 1345.53 14.7846L1345.65 14.6586L1346.51 14.5786L1346.51 14.5785C1347.3 14.5089 1347.33 14.5061 1347.33 12.4861V5.01712C1347.33 3.70316 1347.33 3.24458 1347.1 3.05754C1346.98 2.95727 1346.8 2.93505 1346.51 2.90091L1346.06 2.8446L1345.97 2.77643C1345.76 2.63861 1345.66 2.3852 1345.68 2.07992C1345.7 1.76278 1345.84 1.50789 1346.06 1.39526L1346.18 1.33895L1346.31 1.34488C1347.11 1.38408 1347.91 1.40434 1348.71 1.40564H1352.56C1353.65 1.40564 1354.99 1.40564 1355.22 1.35673L1355.64 1.26782L1355.8 1.67831C1355.93 2.03398 1356.02 3.05207 1356.14 4.3458L1356.17 4.73111L1356.08 4.87634C1355.92 5.0879 1355.68 5.2146 1355.42 5.21867C1355.16 5.232 1354.92 5.14309 1354.77 4.96525L1354.71 4.88968L1354.64 4.67628C1354.35 3.73228 1354.2 3.34253 1353.47 3.15877C1353.09 3.06837 1352.45 3.05059 1351.6 3.05059H1350.12L1350 3.05207C1350 3.14247 1350 3.26251 1350 3.3781V7.60607L1350.18 7.60755H1351.37C1352.63 7.60755 1352.93 7.52012 1352.96 7.50826C1353 7.49683 1353.01 7.48893 1353.02 7.48591L1353.02 7.4848L1353.02 7.48455L1353.02 7.48304C1353.03 7.47271 1353.08 7.40637 1353.13 7.16001L1353.31 6.18637L1353.39 6.08708C1353.55 5.89443 1353.83 5.7981 1354.13 5.82033C1354.38 5.83091 1354.6 5.96496 1354.74 6.17896L1354.8 6.29455V6.42793C1354.8 6.65111 1354.79 6.93166 1354.77 7.2451L1354.77 7.27263C1354.75 7.6609 1354.72 8.09956 1354.72 8.52339C1354.73 8.92392 1354.74 9.32422 1354.77 9.72376C1354.79 10.032 1354.8 10.3076 1354.8 10.5151V10.6485L1354.74 10.7641C1354.61 10.9789 1354.38 11.1131 1354.12 11.1227C1353.83 11.1464 1353.55 11.0486 1353.39 10.856L1353.32 10.7641L1353.11 9.83935C1353.03 9.47369 1352.93 9.44965 1352.83 9.42449L1352.83 9.42441C1352.56 9.34587 1351.97 9.33549 1351.37 9.33549H1350V12.3201C1350 13.1189 1350.03 13.891 1350.26 14.134L1350.26 14.1346C1350.34 14.2152 1350.58 14.4526 1352.38 14.4526C1353.97 14.4526 1354.45 14.3622 1354.79 14.1963C1354.94 14.1073 1355.43 13.6035 1356.02 12.4061L1356.08 12.2949L1356.18 12.2208C1356.39 12.0822 1356.64 12.0427 1356.88 12.1126C1357.12 12.1749 1357.32 12.3435 1357.43 12.572L1357.49 12.7173L1357.46 12.8744C1357.31 13.642 1356.79 15.2692 1356.5 15.8768L1356.36 16.1657L1356.04 16.1598C1354.19 16.1183 1352.35 16.0976 1350.55 16.0976H1348.71C1347.78 16.1016 1346.86 16.1223 1345.93 16.1598L1345.81 16.1628ZM1374.23 22.7115L1374.39 22.6463C1374.68 22.5292 1375.2 22.5677 1375.39 22.9456L1375.47 23.1175L1375.42 23.3028C1375.21 24.1 1375.07 25.705 1375.13 26.2755L1375.15 26.4178L1375.08 26.5467C1374.96 26.7777 1374.73 26.9299 1374.47 26.9498C1374.24 26.9765 1373.92 26.9246 1373.72 26.6875L1373.63 26.5749L1373.61 26.4267C1373.52 25.6161 1373.35 25.3049 1373.29 25.2545C1372.92 24.9759 1372.22 24.8351 1371.21 24.8351H1369.65V34.2706C1369.65 35.6034 1369.65 36.0594 1369.88 36.2347C1369.99 36.3259 1370.17 36.3413 1370.43 36.3646L1371.22 36.4402L1371.32 36.5098C1371.53 36.6506 1371.63 36.9055 1371.61 37.2108C1371.59 37.5264 1371.45 37.7813 1371.22 37.8925L1371.11 37.9488L1370.99 37.9443C1369.89 37.9058 1369.16 37.8836 1368.32 37.8836C1367.37 37.8887 1366.42 37.9089 1365.48 37.9443L1365.35 37.9488L1365.24 37.8925C1365.02 37.7798 1364.88 37.5309 1364.86 37.2256C1364.84 36.9401 1364.97 36.6629 1365.2 36.5024L1365.3 36.4372L1366.16 36.3646C1366.95 36.2949 1366.98 36.292 1366.98 34.2706V24.8351H1365.73C1365.25 24.8351 1363.96 24.8351 1363.54 25.2219C1363.12 25.6161 1362.94 26.0192 1362.74 26.486L1362.69 26.6045L1362.58 26.6831C1362.39 26.8269 1362.14 26.8751 1361.9 26.815C1361.65 26.7596 1361.43 26.5944 1361.31 26.363L1361.21 26.1718L1361.28 25.9703C1361.61 24.9876 1361.86 23.9821 1362.04 22.9619L1362.08 22.753L1362.25 22.6344C1362.45 22.4966 1362.99 22.4136 1363.27 22.6937L1363.38 22.8034L1363.41 22.956C1363.44 23.1457 1363.66 23.1901 1364.56 23.1901H1372.98C1373.96 23.1901 1373.97 23.1783 1374.15 22.8597L1374.23 22.7115ZM1357.9 37.6583L1357.91 37.6555C1358.08 37.6114 1358.55 37.4894 1358.78 37.4894H1358.94L1359.07 37.3886C1359.23 37.2729 1359.32 37.0947 1359.34 36.901C1359.35 36.7087 1359.28 36.5197 1359.15 36.3838L1359.07 36.3097L1358.98 36.2727C1358.98 36.2727 1358.8 36.1927 1358.8 35.2665V34.1046C1358.8 32.9131 1358.89 32.9028 1359.25 32.8598L1359.73 32.8005L1359.84 32.6997C1360.04 32.5153 1360.14 32.2446 1360.1 31.9736C1360.09 31.7226 1359.95 31.4954 1359.74 31.366L1359.61 31.2919L1359.47 31.3023C1358.8 31.3438 1358.12 31.3615 1357.32 31.3615C1356.02 31.3615 1354.96 31.3408 1354.42 31.3023L1354.3 31.2934L1354.19 31.3408C1353.94 31.4475 1353.78 31.7128 1353.78 32.0344C1353.77 32.3604 1353.92 32.6419 1354.16 32.7694L1354.24 32.8094L1355.23 32.9205L1355.25 32.9221C1355.5 32.9521 1355.95 33.0054 1356.02 33.1073C1356.13 33.2733 1356.13 33.9179 1356.13 34.4366V35.2665C1356.13 35.837 1356.04 36.1067 1356 36.1764C1355.94 36.2801 1355.46 36.5706 1354.16 36.5706C1349.99 36.5706 1348.5 33.1532 1348.5 29.9567C1348.5 27.3099 1349.87 24.4824 1353.73 24.4824C1355.88 24.4824 1356.99 25.25 1357.46 27.0536L1357.49 27.1869L1357.59 27.2847C1357.82 27.5144 1358.18 27.5367 1358.41 27.4833C1358.66 27.4398 1358.86 27.2719 1358.96 27.0387L1359 26.9187L1358.98 26.7898C1358.78 25.4368 1358.68 24.4483 1358.68 23.857L1358.66 23.2983L1358.1 23.362C1357.95 23.3769 1357.37 23.2568 1357.12 23.2035L1357.02 23.1827C1356.13 22.976 1355.22 22.8672 1354.3 22.8582C1351.37 22.8582 1349.06 23.7266 1347.44 25.4427C1346.16 26.8194 1345.46 28.6867 1345.46 30.7036C1345.46 32.6701 1346.16 34.4203 1347.49 35.7629C1349.05 37.3678 1351.34 38.2155 1354.1 38.2155C1355.37 38.2155 1356.94 37.9147 1357.9 37.6583ZM1343.61 51.2536L1341.97 50.2163C1341.4 49.8606 1340.46 49.1152 1340.46 48.0897C1340.46 47.2672 1340.79 46.2876 1342.4 46.2876C1343.97 46.2876 1344.44 47.2361 1344.72 48.2631L1344.74 48.3698L1344.82 48.4557C1344.97 48.6337 1345.2 48.7241 1345.44 48.6988C1345.67 48.6854 1345.96 48.5861 1346.12 48.3446L1346.2 48.2201V48.0689C1346.2 47.1887 1346.02 45.9498 1345.8 45.3614L1345.68 45.0369H1345.34C1345.22 45.0369 1344.98 45.0013 1344.75 44.9317C1344.08 44.7517 1343.4 44.6546 1342.71 44.6427C1339.95 44.6427 1338.03 46.3173 1338.03 48.7136C1338.03 50.234 1338.9 51.6478 1340.47 52.7L1342.42 53.9878C1343.77 54.8621 1343.88 55.7276 1343.88 56.47C1343.88 57.3399 1343.34 58.3551 1341.81 58.3551C1340.31 58.3551 1339.28 57.4363 1338.75 55.6253L1338.69 55.489C1338.56 55.2985 1338.34 55.187 1338.11 55.1911C1337.82 55.1971 1337.54 55.3215 1337.38 55.5364L1337.28 55.6772L1337.29 55.8491C1337.33 56.7501 1337.58 58.3728 1337.91 58.9715L1337.97 59.0946L1338.09 59.1657C1338.63 59.4769 1339.79 60 1341.54 60C1344.45 60 1346.41 58.2558 1346.41 55.6624C1346.41 53.8722 1345.49 52.4318 1343.61 51.2536ZM1327.92 58.3551C1323.95 58.3551 1322.89 54.2368 1322.89 51.8034H1322.89C1322.89 47.7325 1325.27 46.2876 1327.3 46.2876C1330.94 46.2876 1332.23 49.8502 1332.23 52.9015C1332.23 56.9265 1329.91 58.3551 1327.92 58.3551ZM1335.27 52.2598C1335.27 56.6716 1331.99 60 1327.65 60C1323.77 60 1319.85 57.4126 1319.85 52.4673C1319.85 48.0067 1323.2 44.6427 1327.65 44.6427C1332.88 44.6427 1335.27 48.5921 1335.27 52.2598ZM1361.35 44.4308L1361.2 44.496L1361.11 44.6442L1361.11 44.6445C1360.93 44.9628 1360.92 44.9761 1359.94 44.9761H1351.54C1350.63 44.9761 1350.41 44.9317 1350.37 44.742L1350.34 44.5893L1350.24 44.4812C1349.96 44.1981 1349.42 44.2796 1349.22 44.4189L1349.04 44.5375L1349.01 44.7464C1348.86 45.5585 1348.57 46.8463 1348.25 47.7562L1348.18 47.9563L1348.27 48.1475C1348.39 48.3786 1348.61 48.5437 1348.86 48.5995C1349.11 48.6587 1349.36 48.6113 1349.55 48.4691L1349.65 48.3905L1349.7 48.272C1349.9 47.8037 1350.08 47.4006 1350.51 47.0064C1350.92 46.6211 1352.21 46.6211 1352.69 46.6211H1353.94V56.0536C1353.94 58.075 1353.91 58.0779 1353.12 58.1476L1352.27 58.2217L1352.17 58.2854C1351.93 58.4461 1351.8 58.7248 1351.83 59.0116C1351.84 59.3154 1351.98 59.5643 1352.21 59.6755L1352.32 59.7318L1352.45 59.7288C1353.39 59.6925 1354.34 59.6718 1355.28 59.6666C1356.07 59.6666 1356.71 59.6844 1357.95 59.7273L1358.08 59.7333L1358.19 59.674C1358.42 59.5628 1358.56 59.3065 1358.58 58.9908C1358.6 58.687 1358.49 58.4321 1358.29 58.2943L1358.18 58.2232L1357.4 58.1491C1357.13 58.1258 1356.95 58.1104 1356.84 58.0193C1356.62 57.8439 1356.62 57.3877 1356.62 56.0536V46.6181H1358.18C1359.19 46.6181 1359.89 46.7604 1360.26 47.0375C1360.32 47.0894 1360.48 47.3991 1360.58 48.2097L1360.59 48.3579L1360.69 48.4705C1360.88 48.7076 1361.2 48.7625 1361.44 48.7343C1361.69 48.7154 1361.92 48.5645 1362.05 48.3342L1362.11 48.2038L1362.1 48.06C1362.04 47.4969 1362.18 45.8623 1362.39 45.0858L1362.44 44.9035L1362.35 44.7331C1362.17 44.3641 1361.65 44.3063 1361.35 44.4308ZM1409.03 23.2035C1409.24 23.335 1409.37 23.5536 1409.39 23.7963C1409.42 24.0533 1409.34 24.312 1409.17 24.5002L1409.05 24.6187L1408.6 24.6854C1408.13 24.7595 1407.89 24.8544 1407.8 24.9033C1407.55 25.5538 1407.56 27.7649 1407.56 28.6126V33.8557C1407.56 36.5202 1407.6 37.2374 1407.62 37.4301L1407.64 37.5383L1407.6 37.642C1407.51 37.9191 1407.24 38.2155 1406.74 38.2155H1406.48L1406.34 38.0021C1406.07 37.6213 1405.32 36.7262 1403.74 34.9123L1398.98 29.4365C1398.84 29.2733 1398.65 29.0446 1398.43 28.7865C1398.33 28.672 1398.23 28.5517 1398.13 28.4288L1397.94 28.1953L1397.93 28.1951C1397.73 27.9475 1397.52 27.6966 1397.32 27.467V32.1766C1397.32 35.5806 1397.6 36.1675 1397.63 36.2223C1397.65 36.2356 1397.84 36.329 1398.28 36.3631L1399.15 36.449L1399.28 36.6269C1399.42 36.8245 1399.48 37.0727 1399.45 37.316C1399.42 37.5314 1399.3 37.7251 1399.13 37.8524L1398.99 37.9517L1398.82 37.9443C1397.83 37.9013 1397.15 37.8836 1396.44 37.8836C1395.74 37.8812 1395.03 37.9015 1394.33 37.9443L1394.16 37.9547L1394.02 37.8524C1393.82 37.706 1393.7 37.4811 1393.69 37.2374C1393.66 36.9923 1393.75 36.7479 1393.92 36.5706L1394.04 36.4476L1394.76 36.3646C1395.11 36.3201 1395.24 36.2505 1395.27 36.2253C1395.49 35.5636 1395.49 33.3322 1395.49 32.4186V32.4182V32.3678V26.1807C1395.49 25.6116 1395.46 25.3478 1395.17 25.0248C1395.02 24.8707 1394.67 24.7462 1394.2 24.6869L1393.69 24.6232L1393.57 24.5046C1393.38 24.3029 1393.29 24.0225 1393.34 23.7488C1393.37 23.5064 1393.52 23.2945 1393.73 23.1812L1393.85 23.1205L1393.99 23.1309C1394.84 23.1901 1395.92 23.1901 1396.27 23.1901C1396.56 23.192 1396.85 23.1732 1397.14 23.1338L1397.53 23.0731L1397.68 23.4465C1397.85 23.8911 1398.58 25.0159 1401.09 27.8568L1403.87 31.0014L1404.01 31.1583C1404.65 31.8874 1405.21 32.5192 1405.73 33.0865V28.8971C1405.73 25.5005 1405.43 24.927 1405.4 24.8721L1405.4 24.872L1405.39 24.8714C1405.39 24.8706 1405.39 24.8693 1405.38 24.8674C1405.33 24.8475 1405.12 24.7676 1404.48 24.6854L1403.99 24.6261L1403.87 24.5283C1403.66 24.3283 1403.56 24.0278 1403.62 23.737C1403.65 23.4781 1403.82 23.2582 1404.06 23.1605L1404.16 23.1249L1404.26 23.1294C1405.11 23.1664 1405.84 23.1901 1406.66 23.1901C1407.53 23.1901 1408.07 23.1694 1408.74 23.1294L1408.9 23.1205L1409.03 23.2035ZM1320.05 37.8925L1320.16 37.9502L1320.29 37.9458C1321.14 37.9064 1322 37.8856 1322.85 37.8836C1323.62 37.8836 1324.28 37.8999 1325.38 37.9458L1325.51 37.9502L1325.62 37.8939C1325.84 37.7828 1325.99 37.5264 1326.01 37.2093C1326.03 36.9025 1325.92 36.6461 1325.72 36.5083L1325.62 36.4431L1324.99 36.3661C1324.7 36.3321 1324.52 36.3099 1324.4 36.2099C1324.17 36.0222 1324.17 35.5599 1324.17 34.2291V26.8446C1324.17 25.4673 1324.17 24.9979 1324.4 24.8187C1324.52 24.7261 1324.7 24.7111 1324.97 24.6884L1325.61 24.6365L1325.71 24.5654C1325.92 24.4276 1326.03 24.1741 1326.01 23.8689C1325.99 23.5488 1325.84 23.2924 1325.62 23.1798L1325.51 23.1235L1325.38 23.1279C1324.54 23.167 1323.7 23.1877 1322.85 23.1901C1322 23.1884 1321.14 23.1677 1320.29 23.1279L1320.16 23.1235L1320.05 23.1812C1319.82 23.2939 1319.68 23.5517 1319.66 23.8703C1319.64 24.1756 1319.75 24.429 1319.96 24.5669L1320.06 24.6365L1320.7 24.6884C1320.97 24.7116 1321.15 24.727 1321.27 24.82C1321.5 24.9996 1321.5 25.469 1321.5 26.8446V26.8446V34.2291C1321.5 35.5605 1321.5 36.0226 1321.27 36.2102C1321.15 36.3099 1320.97 36.3321 1320.68 36.3661L1320 36.449L1319.88 36.572C1319.7 36.7748 1319.62 37.0539 1319.67 37.3234C1319.71 37.5872 1319.85 37.7946 1320.05 37.8925H1320.05ZM1384.66 36.5706C1380.69 36.5706 1379.63 32.4508 1379.63 30.0174C1379.63 25.948 1382.01 24.5031 1384.04 24.5031C1387.67 24.5031 1388.96 28.0657 1388.96 31.117C1388.96 35.142 1386.64 36.5706 1384.66 36.5706ZM1392.01 30.4753C1392.01 34.8871 1388.73 38.214 1384.39 38.214C1380.51 38.214 1376.59 35.6266 1376.59 30.6828C1376.59 26.2222 1379.94 22.8582 1384.39 22.8582C1389.62 22.8582 1392.01 26.8061 1392.01 30.4753ZM1308.27 36.3661L1307.58 36.449L1307.46 36.5735C1307.28 36.7763 1307.2 37.0547 1307.25 37.3234C1307.28 37.5622 1307.42 37.7733 1307.63 37.891L1307.74 37.9502L1307.87 37.9458C1308.72 37.9042 1309.57 37.883 1310.42 37.8821C1311.2 37.8821 1311.86 37.9013 1313.13 37.9458L1313.26 37.9502L1313.37 37.891C1313.6 37.7754 1313.74 37.5175 1313.76 37.1989C1313.77 36.8981 1313.67 36.6461 1313.46 36.5083L1313.36 36.4387L1312.53 36.3646C1312.26 36.341 1312.07 36.3255 1311.96 36.2314C1311.73 36.0536 1311.73 35.5951 1311.73 34.2706V34.2706V31.3289H1313.31C1313.88 31.3289 1314.5 31.3378 1314.74 31.409C1314.89 31.4564 1314.98 31.5379 1315.07 31.8432L1315.31 32.8064L1315.43 32.9087C1315.64 33.0785 1315.91 33.1525 1316.18 33.1132C1316.39 33.0922 1316.58 32.9802 1316.7 32.8064L1316.78 32.6805V32.5278C1316.78 32.3331 1316.77 32.0868 1316.75 31.8131L1316.75 31.7083C1316.72 31.3112 1316.7 30.9134 1316.7 30.5154C1316.7 30.1306 1316.72 29.7199 1316.74 29.3514L1316.74 29.3513V29.3512V29.3511L1316.74 29.3509L1316.75 29.2779L1316.75 29.249C1316.77 28.9301 1316.78 28.6428 1316.78 28.4184V28.2673L1316.7 28.1413C1316.57 27.9531 1316.35 27.8419 1316.08 27.8271C1315.79 27.8123 1315.52 27.9146 1315.37 28.0998L1315.3 28.1917L1315.09 29.1372C1315.01 29.4602 1314.97 29.4765 1314.9 29.5017C1314.79 29.5388 1314.33 29.601 1313.31 29.601H1311.91L1311.73 29.5995V25.1641V25.1636C1311.73 25.0452 1311.73 24.9269 1311.74 24.8351H1313.1C1313.93 24.8351 1314.58 24.8351 1314.97 24.9433C1315.68 25.13 1315.88 25.5998 1316.04 26.5171L1316.08 26.6949L1316.21 26.8105C1316.4 26.9706 1316.67 27.0328 1316.93 26.9795C1317.16 26.9413 1317.36 26.7981 1317.47 26.5912L1317.53 26.4726L1317.52 26.3407C1317.48 25.4374 1317.46 24.5331 1317.46 23.6288L1317.45 23.0108L1316.85 23.1412C1316.63 23.1901 1315.28 23.1901 1314.19 23.1901H1310.42C1309.66 23.1901 1308.98 23.1724 1308.06 23.1294L1307.93 23.1235L1307.82 23.1812C1307.59 23.2924 1307.45 23.5488 1307.43 23.8629C1307.41 24.1697 1307.51 24.4261 1307.72 24.5639L1307.82 24.6306L1308.27 24.6869C1309.06 24.7817 1309.06 24.7817 1309.06 26.8031V34.2706C1309.06 35.5777 1309.06 36.0302 1308.84 36.2137C1308.72 36.3109 1308.54 36.3327 1308.27 36.3661ZM1338.75 23.1249L1338.85 23.1294C1339.7 23.1664 1340.43 23.1901 1341.25 23.1901C1342.13 23.1901 1342.66 23.1694 1343.33 23.1294L1343.49 23.1205L1343.62 23.2035C1343.82 23.3345 1343.96 23.5532 1343.98 23.7963C1344.01 24.0533 1343.93 24.312 1343.75 24.5002L1343.64 24.6187L1343.19 24.6854C1342.72 24.7595 1342.47 24.8544 1342.39 24.9033C1342.14 25.5553 1342.15 27.7664 1342.15 28.6155V33.8557C1342.15 36.5202 1342.19 37.2374 1342.21 37.4301L1342.22 37.5383L1342.19 37.642C1342.1 37.9191 1341.83 38.2155 1341.33 38.2155H1341.07L1340.92 38.0021C1340.66 37.6213 1339.91 36.7262 1338.33 34.9123L1333.57 29.4365C1333.43 29.2734 1333.24 29.045 1333.02 28.7872C1332.92 28.6725 1332.82 28.552 1332.72 28.4288L1331.91 27.467V32.1766C1331.91 35.5806 1332.19 36.1675 1332.22 36.2223C1332.24 36.2356 1332.43 36.329 1332.87 36.3631L1333.73 36.449L1333.87 36.6269C1334.01 36.8258 1334.07 37.0759 1334.03 37.3204C1334 37.5352 1333.89 37.7278 1333.71 37.8539L1333.57 37.9517L1333.41 37.9443C1332.42 37.9013 1331.73 37.8836 1331.03 37.8836C1330.32 37.8812 1329.62 37.9015 1328.92 37.9443L1328.75 37.9547L1328.61 37.8524C1328.41 37.7061 1328.29 37.4811 1328.28 37.2374C1328.25 36.9923 1328.34 36.7481 1328.5 36.5706L1328.63 36.4476L1329.35 36.3646C1329.7 36.3201 1329.83 36.2505 1329.86 36.2253C1330.08 35.5595 1330.08 33.3047 1330.08 32.4018V32.3678V26.1807C1330.08 25.6116 1330.05 25.3493 1329.76 25.0248C1329.6 24.8707 1329.26 24.7462 1328.79 24.6869L1328.28 24.6232L1328.15 24.5046C1327.97 24.3209 1327.89 24.0304 1327.93 23.7488C1327.96 23.506 1328.11 23.2937 1328.32 23.1798L1328.44 23.1205L1328.58 23.1309C1329.42 23.1901 1330.51 23.1901 1330.86 23.1901C1331.15 23.192 1331.44 23.1732 1331.73 23.1338L1332.12 23.0731L1332.27 23.4465C1332.44 23.8911 1333.17 25.0174 1335.68 27.8582L1338.48 31.0311L1338.61 31.1782C1339.25 31.9008 1339.8 32.5255 1340.32 33.0865V28.8971C1340.32 25.502 1340.02 24.927 1339.99 24.8721C1339.98 24.8721 1339.98 24.8703 1339.97 24.8668C1339.91 24.8457 1339.7 24.7656 1339.07 24.6854L1338.58 24.6261L1338.46 24.5283C1338.25 24.3281 1338.15 24.0277 1338.21 23.737C1338.24 23.4782 1338.41 23.2585 1338.65 23.1605L1338.75 23.1249ZM1275.35 36.5083L1275.25 36.4431L1274.64 36.3675C1274.37 36.3337 1274.19 36.3115 1274.07 36.2139C1273.85 36.0298 1273.85 35.5772 1273.85 34.2706V26.8016C1273.85 25.4645 1273.85 25.0074 1274.07 24.8278C1274.19 24.7346 1274.36 24.7162 1274.63 24.6884L1275.19 24.635L1275.29 24.5639C1275.5 24.4246 1275.6 24.1697 1275.58 23.8644C1275.56 23.5473 1275.42 23.2924 1275.19 23.1798L1275.08 23.122L1274.95 23.1279C1274.15 23.1673 1273.35 23.1881 1272.55 23.1901C1271.68 23.1901 1270.96 23.1664 1270.09 23.1279L1269.96 23.1235L1269.85 23.1798C1269.63 23.2924 1269.48 23.5473 1269.46 23.8644C1269.44 24.1697 1269.55 24.4246 1269.75 24.5639L1269.85 24.6335L1270.37 24.6869C1270.65 24.7156 1270.83 24.7344 1270.95 24.8312C1271.17 25.0139 1271.17 25.4742 1271.17 26.8031V29.3387C1271.03 29.3506 1270.81 29.3506 1270.64 29.3506H1264.77C1264.61 29.3506 1264.39 29.3506 1264.25 29.3387C1264.24 29.2809 1264.24 29.2201 1264.24 29.1861V26.8001C1264.24 25.4641 1264.24 25.0066 1264.47 24.8264C1264.58 24.7325 1264.76 24.7138 1265.03 24.6854L1265.54 24.6321L1265.64 24.5624C1265.85 24.4231 1265.96 24.1682 1265.94 23.8629C1265.92 23.5458 1265.77 23.2909 1265.55 23.1783L1265.43 23.1205L1265.3 23.1264C1264.52 23.1668 1263.73 23.1875 1262.95 23.1887C1262.41 23.1887 1261.94 23.1738 1261.43 23.1561C1261.08 23.1445 1260.72 23.1346 1260.37 23.1264L1260.25 23.1235L1260.14 23.1798C1259.92 23.2924 1259.77 23.5502 1259.75 23.8674C1259.73 24.1727 1259.84 24.4261 1260.05 24.5639L1260.15 24.6365L1260.82 24.6869C1261.47 24.7373 1261.57 24.7462 1261.57 26.8016V34.2691C1261.57 35.5532 1261.57 35.9956 1261.35 36.1877C1261.23 36.2887 1261.06 36.3205 1260.79 36.369L1260.28 36.4579L1260.17 36.572C1259.99 36.7752 1259.91 37.0534 1259.97 37.3219C1260.01 37.5842 1260.15 37.7902 1260.34 37.8895L1260.45 37.9473L1260.58 37.9443C1260.77 37.9392 1260.95 37.9326 1261.13 37.9261L1261.37 37.9176L1261.47 37.9141C1261.94 37.8974 1262.41 37.8806 1262.95 37.8806C1263.74 37.8806 1264.44 37.9028 1265.53 37.9443L1265.66 37.9488L1265.78 37.8895C1266 37.7769 1266.14 37.5205 1266.16 37.2034C1266.18 36.901 1266.07 36.6461 1265.87 36.5083L1265.77 36.4387L1265.05 36.3646C1264.27 36.2801 1264.24 36.2757 1264.24 34.2691V31.3438L1264.24 31.1956C1264.4 31.1808 1264.64 31.1808 1264.77 31.1808H1270.64C1270.78 31.1808 1271.02 31.1808 1271.17 31.1956L1271.17 31.3438V34.2691C1271.17 35.5331 1271.17 35.9822 1270.95 36.1787C1270.83 36.287 1270.64 36.3186 1270.34 36.3675L1269.79 36.455L1269.67 36.572C1269.49 36.7751 1269.42 37.0534 1269.47 37.3219C1269.5 37.5611 1269.64 37.7724 1269.85 37.8895L1269.96 37.9488L1270.09 37.9443C1270.91 37.9028 1271.73 37.8816 1272.55 37.8806C1273.37 37.8835 1274.19 37.9048 1275.01 37.9443L1275.14 37.9488L1275.26 37.8895C1275.48 37.7754 1275.63 37.516 1275.64 37.1989C1275.66 36.8966 1275.55 36.6447 1275.35 36.5068V36.5083ZM1327.76 2.85349L1327.65 2.78236V2.78384C1327.45 2.64454 1327.34 2.39261 1327.36 2.08733C1327.38 1.76871 1327.52 1.51086 1327.74 1.39823L1327.85 1.34191L1327.98 1.34488C1328.32 1.35133 1328.63 1.36115 1328.92 1.37043L1329.05 1.37452C1329.56 1.3923 1330.02 1.40712 1330.55 1.40712C1331.29 1.40712 1331.97 1.38934 1332.91 1.34488L1333.04 1.33895L1333.15 1.39675C1333.38 1.50937 1333.52 1.76575 1333.54 2.08437C1333.56 2.38816 1333.46 2.64306 1333.25 2.78088L1333.15 2.84905L1332.64 2.90388C1332.37 2.93181 1332.19 2.95017 1332.07 3.04404C1331.85 3.22412 1331.85 3.68209 1331.85 5.0186V7.40453C1331.85 7.43861 1331.85 7.49937 1331.85 7.55717C1331.99 7.56754 1332.22 7.56754 1332.38 7.56754H1338.25C1338.41 7.56754 1338.64 7.56754 1338.78 7.55717L1338.78 7.40453V5.0186C1338.78 3.69091 1338.78 3.23084 1338.55 3.04825C1338.43 2.95143 1338.25 2.93264 1337.97 2.90388L1337.46 2.84905L1337.36 2.78088C1337.15 2.64306 1337.05 2.38816 1337.07 2.08288C1337.09 1.76575 1337.23 1.50937 1337.45 1.39675L1337.57 1.34043L1337.7 1.34488C1338.52 1.38458 1339.34 1.40533 1340.16 1.40712C1340.96 1.40506 1341.76 1.38431 1342.56 1.34488L1342.69 1.33895L1342.8 1.39675C1343.02 1.50937 1343.17 1.76427 1343.19 2.0814C1343.21 2.38816 1343.1 2.64157 1342.9 2.78088L1342.79 2.85053L1342.24 2.90388C1341.45 2.98538 1341.45 2.98538 1341.45 5.0186V12.4861C1341.45 14.4852 1341.45 14.4852 1342.25 14.583L1342.86 14.6601L1342.96 14.7238C1343.16 14.8616 1343.27 15.1136 1343.25 15.4159C1343.23 15.7345 1343.09 15.9938 1342.87 16.108L1342.75 16.1672L1342.62 16.1613C1341.8 16.122 1340.98 16.1012 1340.16 16.0991C1339.34 16.0996 1338.52 16.1203 1337.7 16.1613L1337.57 16.1672L1337.45 16.108C1337.24 15.99 1337.1 15.7784 1337.08 15.5389C1337.02 15.2706 1337.1 14.993 1337.28 14.7905L1337.39 14.6734L1337.94 14.5845C1338.24 14.5355 1338.43 14.5039 1338.56 14.3951C1338.78 14.1984 1338.78 13.7489 1338.78 12.4861V9.56223C1338.78 9.52963 1338.78 9.46887 1338.78 9.41403C1338.63 9.39922 1338.38 9.39922 1338.25 9.39922H1332.38C1332.25 9.39922 1332 9.39922 1331.85 9.41403C1331.85 9.46887 1331.85 9.52963 1331.85 9.56223V12.4861C1331.85 14.4937 1331.88 14.4971 1332.66 14.583L1332.66 14.583L1333.37 14.6571L1333.48 14.7253C1333.68 14.8631 1333.79 15.1165 1333.77 15.4203C1333.75 15.7375 1333.6 15.9953 1333.38 16.108L1333.27 16.1657L1333.14 16.1613C1332.05 16.1198 1331.34 16.0991 1330.55 16.0991C1330.01 16.0991 1329.54 16.1158 1329.08 16.1325L1328.98 16.1361L1328.74 16.1444C1328.56 16.151 1328.38 16.1576 1328.18 16.1628L1328.06 16.1643L1327.95 16.108C1327.74 15.991 1327.6 15.7797 1327.57 15.5404C1327.52 15.2719 1327.6 14.9936 1327.78 14.7905L1327.89 14.6764L1328.39 14.586C1328.66 14.538 1328.84 14.5065 1328.96 14.4055C1329.17 14.2136 1329.17 13.771 1329.17 12.4876V5.0186C1329.17 2.96343 1329.07 2.95575 1328.42 2.90538L1328.42 2.90536L1327.76 2.85349ZM1292.69 23.119L1292.82 23.2035C1293.01 23.3235 1293.13 23.5201 1293.16 23.7414C1293.2 23.993 1293.14 24.2497 1292.98 24.4483L1292.85 24.6084L1292.15 24.6676C1291.72 24.7017 1291.55 24.844 1291.53 24.8781C1291.29 25.4516 1291.29 27.9546 1291.29 28.8971V31.243C1291.29 33.663 1290.78 35.3969 1289.72 36.5409C1288.77 37.5887 1287.17 38.2155 1285.44 38.2155C1283.64 38.2155 1282.25 37.7917 1281.28 36.9529C1280.07 35.9407 1279.5 34.2617 1279.5 31.6772V26.7824C1279.5 25.4326 1279.5 24.9731 1279.28 24.797C1279.17 24.7062 1278.99 24.6908 1278.73 24.6676L1278.09 24.6158L1277.98 24.5446C1277.78 24.4068 1277.67 24.1578 1277.69 23.8629C1277.71 23.5502 1277.85 23.2954 1278.07 23.1827L1278.19 23.1235L1278.32 23.1279C1279.31 23.1694 1280 23.1916 1280.84 23.1916C1281.69 23.1916 1282.37 23.1694 1283.34 23.1279L1283.47 23.122L1283.59 23.1812C1283.81 23.2954 1283.96 23.5473 1283.98 23.8585C1283.99 24.1549 1283.89 24.4053 1283.68 24.5431L1283.58 24.6143L1282.96 24.6676C1282.69 24.6908 1282.52 24.7061 1282.4 24.7966C1282.18 24.9722 1282.18 25.4314 1282.18 26.7824V31.2623C1282.18 34.7463 1283.31 36.3008 1285.85 36.3008C1288.24 36.3008 1289.46 34.6129 1289.46 31.283V28.8971C1289.46 25.5998 1289.19 24.9477 1289.13 24.8499C1289.12 24.8247 1288.96 24.7047 1288.5 24.6691L1287.78 24.6098L1287.65 24.4542C1287.49 24.2654 1287.43 24.0183 1287.46 23.7755C1287.49 23.5492 1287.61 23.3442 1287.79 23.2124L1287.93 23.119L1288.09 23.1279C1288.87 23.1709 1289.62 23.1916 1290.4 23.1916C1291.11 23.1932 1291.82 23.1719 1292.53 23.1279L1292.69 23.119ZM1316.02 45.8179C1315.02 45.1925 1313.72 44.9139 1311.82 44.9139C1309.97 44.9139 1308.76 44.9406 1307.69 45.0843L1307.61 45.0947L1307.54 45.1317C1307.31 45.2534 1307.16 45.4827 1307.13 45.7423C1307.09 46.0175 1307.19 46.2947 1307.39 46.4803L1307.51 46.5811L1308.4 46.6789C1308.9 46.7352 1308.92 46.7381 1308.92 48.4009V56.0551C1308.92 57.3471 1308.92 57.7985 1308.7 57.9868C1308.58 58.0879 1308.4 58.1132 1308.12 58.152L1307.52 58.2395L1307.41 58.358C1307.22 58.5605 1307.15 58.8391 1307.2 59.1079C1307.23 59.3484 1307.37 59.5606 1307.58 59.677L1307.69 59.7362L1307.82 59.7288C1308.78 59.6844 1309.5 59.6681 1310.3 59.6681C1311.1 59.6681 1311.76 59.6873 1312.95 59.7288L1313.08 59.7347L1313.19 59.677C1313.4 59.5732 1313.54 59.3465 1313.57 59.059C1313.61 58.7552 1313.52 58.4884 1313.33 58.3269L1313.21 58.2306L1312.51 58.1506C1312.17 58.1134 1311.96 58.0899 1311.83 57.9751C1311.6 57.7786 1311.6 57.3142 1311.6 56.0551V46.8048C1311.6 46.7456 1311.6 46.6522 1311.6 46.5825C1311.77 46.5588 1312.09 46.5588 1312.21 46.5588C1313.99 46.5588 1315.02 47.5843 1315.02 49.3745C1315.02 51.1084 1314.21 52.0302 1312.41 52.368L1312.34 52.3843C1312.09 52.4673 1311.93 52.7059 1311.91 53.0097C1311.9 53.3357 1312.06 53.6203 1312.32 53.7359L1312.42 53.7774H1312.52C1313.55 53.7774 1314.69 53.5254 1315.57 53.1046C1316.44 52.6748 1317.9 51.6167 1317.9 49.3553C1317.9 47.8674 1317.22 46.5781 1316.02 45.8164V45.8179ZM1305.2 26.4726L1305.19 26.3393C1305.15 25.6027 1305.13 24.6395 1305.13 23.6273L1305.12 23.0093L1304.52 23.1398C1304.3 23.1887 1302.95 23.1887 1301.86 23.1887H1298.09C1297.33 23.1887 1296.65 23.1724 1295.73 23.1279L1295.6 23.1205L1295.49 23.1798C1295.26 23.2909 1295.12 23.5458 1295.1 23.8615C1295.08 24.1682 1295.18 24.4231 1295.39 24.5624L1295.49 24.6291L1295.93 24.6854C1296.21 24.7181 1296.39 24.7395 1296.51 24.8362C1296.73 25.0201 1296.73 25.4763 1296.73 26.8001V34.2691C1296.73 35.5768 1296.73 36.0291 1296.51 36.2125C1296.39 36.3095 1296.21 36.3313 1295.94 36.3646L1295.25 36.4476L1295.13 36.572C1294.95 36.7751 1294.87 37.0532 1294.92 37.3219C1294.95 37.561 1295.09 37.7727 1295.3 37.891L1295.41 37.9502L1295.54 37.9443C1296.45 37.9043 1297.16 37.8806 1298.09 37.8806C1298.99 37.8849 1299.9 37.9062 1300.8 37.9443L1300.93 37.9488L1301.04 37.8895C1301.26 37.7754 1301.41 37.5146 1301.43 37.1974C1301.44 36.8951 1301.34 36.6447 1301.13 36.5068L1301.03 36.4372L1300.2 36.3631C1299.93 36.3395 1299.75 36.3241 1299.63 36.2302C1299.4 36.0526 1299.4 35.5942 1299.4 34.2691V31.3275L1299.59 31.326H1300.98C1301.55 31.326 1302.17 31.3364 1302.41 31.4075C1302.56 31.4564 1302.65 31.5364 1302.74 31.8417L1302.98 32.8035L1303.1 32.9072C1303.31 33.0756 1303.58 33.1494 1303.85 33.1117C1304.06 33.0905 1304.25 32.9792 1304.37 32.8064L1304.45 32.679V32.5264C1304.45 32.307 1304.44 32.0225 1304.42 31.7068L1304.42 31.7048C1304.39 31.3334 1304.37 30.9133 1304.37 30.5139C1304.37 30.1034 1304.39 29.6632 1304.42 29.2779C1304.44 28.946 1304.45 28.6481 1304.45 28.4184V28.2658L1304.37 28.1398C1304.24 27.9516 1304.02 27.8405 1303.75 27.8256C1303.45 27.8108 1303.19 27.9131 1303.04 28.0983L1302.97 28.1902L1302.75 29.1357C1302.68 29.4587 1302.64 29.475 1302.57 29.5002C1302.46 29.5373 1302.01 29.598 1300.98 29.598H1299.4V25.1626C1299.4 25.0455 1299.4 24.9255 1299.41 24.8336H1300.78C1301.6 24.8336 1302.25 24.8336 1302.64 24.9433C1303.35 25.1285 1303.55 25.5983 1303.72 26.5141L1303.75 26.692L1303.88 26.809C1304.08 26.9733 1304.35 27.0355 1304.6 26.978C1304.83 26.9396 1305.03 26.7964 1305.14 26.5897L1305.2 26.4726Z" fill="#DADADA"/>
<path fill-rule="evenodd" clip-rule="evenodd" d="M1041.82 12.6768C1043.58 12.6768 1045 14.1378 1045 15.9408C1045 17.7423 1043.58 19.2063 1041.81 19.2063C1040.05 19.2063 1038.61 17.7603 1038.61 15.9543C1038.61 14.1483 1040.05 12.7038 1041.81 12.7038L1041.82 12.6768ZM907.41 37.3533L909.307 36.4593V16.5243L907.311 15.5748V13.9113L914.693 12.6918H915.194V22.6668H915.392C917.071 21.1075 919.279 20.2424 921.571 20.2458C924.594 20.2458 926.094 21.7863 926.094 25.1463V36.4563L928.013 37.3533V39.0393H918.238V37.3533L920.159 36.4563V26.5158C920.159 24.6558 919.364 23.9598 917.754 23.9598C916.915 23.954 916.082 24.1119 915.304 24.4248V36.4593L917.224 37.3578V39.0438H907.425V37.3503L907.41 37.3533ZM896.857 33.9363V23.7963H894.111V21.0228L896.857 20.6463V17.1873L902.779 16.3368V20.6478H906.705V23.8083H902.78V33.4263C902.78 35.2323 903.272 36.1578 905.008 36.1578C905.626 36.1578 906.47 36.0903 906.899 36.0003V38.3463C905.95 38.9193 903.92 39.4068 902.045 39.4068C898.515 39.4068 896.86 37.8168 896.86 33.9363H896.858H896.857ZM936.34 22.2558C937.827 22.2558 938.63 22.5258 938.63 27.9048L933.667 28.2018C933.733 23.3268 934.451 22.2558 936.34 22.2558ZM933.716 30.3903H944.39C944.39 22.6998 941.809 20.2488 936.439 20.2488C931.107 20.2488 927.607 23.7618 927.607 29.7948C927.607 36.0258 930.78 39.4728 936.931 39.4728C940.237 39.4728 942.906 37.9593 943.735 36.8088V35.0238C942.493 35.4093 941.215 35.6568 938.925 35.6568C935.698 35.6568 934.033 33.9461 933.716 30.3903ZM1036.96 23.1078V21.4593L1044.41 20.2413H1044.91V36.4968L1046.81 37.3998V39.0708H1037.06V37.3773L1038.96 36.4743V24.0573L1036.96 23.1078ZM1057.2 35.4963V30.5463L1055.81 30.6813C1054.43 30.8163 1053.3 31.7538 1053.3 33.5073C1053.3 35.5278 1054.39 36.1953 1055.53 36.1953C1056.19 36.1953 1056.87 35.8608 1057.19 35.4948L1057.2 35.4963ZM1051.74 26.4483L1052.99 22.7103H1052.93C1053.29 22.6728 1053.84 22.6323 1054.15 22.6323C1056.42 22.6323 1057.13 23.8023 1057.13 26.1543V28.5453L1053.71 29.1558C1049.78 29.9898 1047.38 30.6003 1047.38 34.3473C1047.38 37.3953 1049.38 39.4953 1052.56 39.4953C1054.79 39.4953 1056.91 38.5023 1057.7 36.8763H1057.88C1058.15 38.8638 1059.83 39.4728 1061.69 39.4728C1063.13 39.4728 1064.45 39.0633 1065.03 38.7423V37.3623L1063.14 36.4593V25.8018C1063.14 21.6933 1060.26 20.2488 1055.49 20.2488C1052.81 20.2488 1050.94 20.876 1049.42 21.3881C1049.15 21.4765 1048.9 21.5615 1048.66 21.6393V26.4483H1051.74ZM1065.52 37.3548L1067.42 36.4743V24.0573L1065.42 23.1093V21.4608L1072.8 20.2638H1073.3V22.7028H1073.5C1075.18 21.1458 1077.39 20.2829 1079.68 20.2878C1082.7 20.2878 1084.2 21.8223 1084.2 25.1868V36.4968L1086.13 37.3998V38.0455V39.0948H1076.35V37.4223L1078.27 36.5373V26.5173C1078.27 24.6558 1077.47 23.9598 1075.86 23.9598C1075.03 23.9542 1074.19 24.1121 1073.42 24.4248V36.4593L1075.31 37.3578V39.0438H1065.56V37.3503L1065.52 37.3548ZM1026.68 15.6138L1028.67 16.5393H1028.73V21.0543C1028.01 20.5128 1026.84 20.2878 1025.85 20.2878C1021.1 20.2878 1017.11 22.9518 1017.11 30.3333C1017.11 37.3548 1021.01 39.4773 1024.28 39.4773C1026.51 39.4773 1028.03 38.4618 1028.78 37.4898H1028.98V39.3873H1029.46L1036.52 38.5518V36.9708L1034.63 35.9103V12.7233H1034.13L1026.68 13.9428V15.6138ZM1028.67 35.8203V23.4228C1028.21 23.0628 1027.72 22.7628 1026.64 22.7628C1024.78 22.7628 1023.35 24.4773 1023.35 29.6478C1023.35 34.1763 1024.48 36.1488 1026.84 36.1488C1027.75 36.1488 1028.27 35.9598 1028.67 35.7933L1028.67 35.8203ZM950.443 42.7053C950.443 43.9698 951.561 45.1443 954.813 45.1443C958.541 45.1443 959.572 43.9473 959.567 42.0513C959.567 41.1033 958.898 40.6503 957.428 40.6503H951.134C950.673 41.2158 950.443 41.8248 950.443 42.7053ZM954.864 22.3863C956.166 22.3863 957.003 22.9743 957.003 26.6313C957.003 30.2883 956.163 30.6708 954.883 30.6708C953.603 30.6708 952.778 30.3648 952.778 26.6358C952.778 22.9098 953.594 22.3908 954.894 22.3908L954.864 22.3863ZM952.415 35.0973H958.812L958.806 35.0253C962.755 35.0253 964.698 36.6963 964.698 40.2858C964.698 44.6433 961.671 47.3973 954.676 47.3973C949.048 47.3973 945.594 45.5913 945.594 43.1523C945.594 40.7823 947.855 40.1043 949.875 39.6753V39.4788C947.956 39.0573 947.036 37.6503 947.036 36.2283C947.036 34.2798 949.011 32.7588 950.037 32.0178V31.8258C948.257 30.8283 947.066 29.0238 947.066 26.6013C947.066 22.6248 950.256 20.2848 954.868 20.2848C956.302 20.2848 957.882 20.7363 959.015 21.1653H959.27L963.822 20.2398H964.152V23.9223L963.755 23.8998L960.799 22.8393V22.9743C961.947 24.0123 962.674 25.0278 962.674 26.8113C962.674 30.8073 959.519 32.9523 954.907 32.9523C953.716 32.9523 952.922 32.8623 951.951 32.5683C951.51 32.9073 951.156 33.4278 951.156 33.9228C951.156 34.5558 951.731 35.0973 952.415 35.0973ZM1003.63 21.4623V23.1318L1005.63 24.0798V36.4968L1003.74 37.3998V39.0948H1014.02V37.4223L1011.57 36.5193V26.2893C1012.58 25.7943 1013.92 25.6263 1015.52 25.6263C1016.04 25.6263 1016.66 25.6938 1017.02 25.7913V20.4423C1016.83 20.3748 1016.44 20.3433 1016.14 20.3433C1014.18 20.3433 1012.57 21.6378 1011.53 24.0918H1011.35V20.2263H1010.84L1003.63 21.4413V21.4608L1003.63 21.4623ZM995.418 30.5598V35.5263H995.448C995.121 35.8878 994.446 36.2268 993.784 36.2268C992.636 36.2268 991.556 35.5713 991.556 33.5388C991.556 31.7793 992.681 30.8298 994.05 30.6948L995.418 30.5598ZM991.202 22.7253L989.945 26.4738H986.86V21.6393C987.11 21.5604 987.369 21.4741 987.637 21.3843C989.167 20.8729 991.034 20.2488 993.699 20.2488C998.488 20.2488 1001.36 21.6933 1001.36 25.8018V36.4593L1003.25 37.3623V38.7423C1002.68 39.0633 1001.36 39.4728 999.922 39.4728C998.068 39.4728 996.39 38.8638 996.126 36.8763H995.949C995.154 38.5023 993.039 39.4953 990.823 39.4953C987.651 39.4953 985.66 37.3953 985.66 34.3473C985.66 30.6003 988.08 29.9898 992.005 29.1558L995.442 28.5453V26.1543C995.442 23.8023 994.749 22.6323 992.464 22.6323C992.165 22.6323 991.603 22.6728 991.246 22.7103L991.207 22.7253H991.202ZM964.638 23.1093L966.623 24.0573L966.599 24.0558V33.6258C966.599 36.8088 968.137 39.4263 971.734 39.4263C974.154 39.4263 976.041 38.3658 977.183 36.9213H977.382L977.388 39.3603H977.909L985.147 38.5473V36.9573L983.16 35.8968V20.2278H982.676L975.24 21.4428V23.1063L977.247 24.0558V35.1783L977.141 35.22C976.597 35.4345 976.144 35.6133 975.108 35.6133C973.603 35.6133 972.604 35.2413 972.604 33.1533V20.2638H972.095L964.638 21.4608V23.1093Z" fill="#DADADA"/>
<path fill-rule="evenodd" clip-rule="evenodd" d="M668.856 44.22C670.241 44.5041 671.637 44.7366 673.039 44.9172V44.9157C674.237 45.0386 677.028 45.0214 677.918 44.8872C681.778 44.3043 684.687 42.0614 686.042 38.6243C686.403 37.7143 686.748 36.31 686.87 35.2672C687.011 34.0457 686.931 31.6057 686.717 30.6243C685.898 26.86 683.551 24.26 680.382 23.6029C679.897 23.5029 679.457 23.4829 678.513 23.5157C677.094 23.5643 676.116 23.7772 675.054 24.2686C674.704 24.4314 674.396 24.5643 674.373 24.5643C674.348 24.5643 674.351 22.4129 674.38 19.7829C674.42 16.0772 674.408 15 674.331 15C674.065 14.9957 665.658 16.6014 665.566 16.6743C665.498 16.73 665.469 16.9072 665.484 17.1772L665.488 17.2428C665.494 17.3781 665.498 17.4652 665.539 17.5296C665.612 17.6458 665.803 17.6882 666.338 17.807L666.48 17.8386C666.789 17.91 667.15 18.0429 667.283 18.1386C667.625 18.3814 667.909 18.91 668.106 19.6672C668.261 20.2643 668.283 20.6914 668.354 24.7286C668.428 28.8529 668.414 33.0914 668.3 40.8572L668.253 44.0814L668.856 44.22ZM609.355 44.46C609.287 44.4314 609.252 44.2272 609.252 43.8457L609.252 43.7835C609.252 43.5551 609.252 43.4141 609.316 43.3149C609.42 43.1545 609.693 43.1037 610.408 42.9709L610.527 42.9486C611.54 42.7614 611.901 42.5686 612.349 41.9829C613.215 40.8443 613.401 38.6543 613.404 29.6343C613.404 21.1643 613.243 19.3829 612.346 18.0729C611.949 17.4929 611.279 17.1772 610.157 17.0429L609.292 16.9386L609.269 16.2629L609.245 15.5872L609.516 15.5386C609.665 15.5129 614.898 15.5014 621.143 15.5143L632.499 15.5372L632.552 15.8672C632.58 16.0486 632.629 17.91 632.659 20.0014L632.713 23.8057L632.128 23.9843L632.115 23.9884C631.711 24.1105 631.496 24.1757 631.341 24.1059C631.164 24.026 631.067 23.7689 630.859 23.2173L630.855 23.2043C629.88 20.6229 628.764 19.1357 627.236 18.3857C626.181 17.8672 625.696 17.8043 622.718 17.8043H620.128L620.083 18.2372C619.999 19.0486 619.868 24.27 619.869 26.7286V29.1814L620.631 29.1772C621.243 29.1676 621.854 29.1448 622.465 29.1086C623.354 29.0557 623.616 29.0086 623.989 28.8372C624.901 28.4129 625.522 27.4814 625.901 25.9657L626.098 25.1829L626.77 25.1586L627.442 25.1357V35.0414L626.77 35.0172L626.098 34.9929L625.907 34.21C625.549 32.7386 624.859 31.6857 624.006 31.3072C623.612 31.1329 622.638 31.0343 620.754 30.9772L619.869 30.9486V32.81C619.869 34.8386 619.981 37.5814 620.123 39.07C620.323 41.1457 620.851 42.2929 621.802 42.7072C621.985 42.7872 622.558 42.9157 623.079 42.9929C623.599 43.0714 624.091 43.1686 624.17 43.21C624.369 43.3143 624.384 44.3886 624.184 44.4643C624.027 44.5243 609.503 44.5214 609.355 44.46ZM649.928 44.4443C649.852 44.3972 649.828 44.2072 649.845 43.8072L649.869 43.2372L650.158 43.1757C650.316 43.1414 650.657 43.0757 650.914 43.0272C651.712 42.8772 652.169 42.4443 652.427 41.5957C652.636 40.9043 652.729 38.6929 652.735 34.2514C652.741 28.82 652.628 27.5372 652.079 26.8086C651.782 26.4157 651.567 26.3029 650.846 26.1657L650.014 26.0014C649.85 25.9672 649.828 25.9129 649.828 25.51C649.828 25.1172 649.854 25.0457 650.014 24.98C650.26 24.8786 658.414 23.2457 658.674 23.2457H658.878L658.838 24.4614C658.816 25.13 658.781 26.1043 658.759 26.6257L658.722 27.5743L659.018 27.04C659.963 25.3329 661.023 24.2714 662.433 23.6257C663.208 23.2686 663.724 23.1629 664.68 23.1629C665.815 23.1629 666.948 23.5343 666.948 23.9057C666.948 24.1543 664.951 29.4429 664.84 29.4843C664.787 29.5057 664.397 29.3557 663.972 29.1529C663.091 28.7286 662.262 28.5214 661.459 28.5243C660.458 28.5243 659.34 28.8957 658.899 29.3686C658.71 29.5712 658.709 29.5828 658.663 32.6025V32.6025V32.6026V32.6026V32.6027V32.6027V32.6028V32.6028L658.662 32.6114C658.615 35.6114 658.715 39.2714 658.883 40.7429C659.026 41.9957 659.36 42.6143 660.047 42.9C660.276 42.9972 661.726 43.1957 662.198 43.1957C662.235 43.1957 662.254 43.4829 662.241 43.8343L662.215 44.4743L656.125 44.4929C652.775 44.5043 649.986 44.4829 649.928 44.4443ZM708.586 43.9514C709.363 44.2872 711.697 44.7986 713.164 44.9557V44.9572C713.344 44.9757 714.345 44.9814 715.386 44.9714C717.192 44.95 717.322 44.9386 718.23 44.7C720.913 44 722.649 42.5014 723.419 40.2286C723.654 39.5314 723.689 39.3172 723.721 38.2786C723.767 36.8943 723.64 36.1743 723.189 35.2743C722.498 33.8886 721.224 32.94 718.554 31.8229C716.375 30.91 715.281 30.2786 714.613 29.5472C714.071 28.9529 713.913 28.4729 713.966 27.5843C714.014 26.7643 714.214 26.2772 714.727 25.7272C715.386 25.0229 716.291 24.7757 717.375 25.0057C719.153 25.3814 720.296 26.6157 721.277 29.2229C721.628 30.1529 721.67 30.1814 722.298 29.9472L722.697 29.7986L722.683 28.7272C722.676 28.1386 722.645 26.9014 722.616 25.9772L722.563 24.2986L722.267 24.1729C720.641 23.4829 717.537 23.0529 715.515 23.2386C713.218 23.4486 711.531 24.1786 710.233 25.5257C708.942 26.8643 708.361 28.4357 708.463 30.3C708.549 31.8414 709.005 32.95 709.952 33.9214C710.834 34.8243 711.572 35.25 713.689 36.0786C717.108 37.4157 718.014 38.2086 718.005 39.8572C717.999 41.25 717.262 42.2686 715.918 42.7429C715.439 42.9129 714.224 42.9129 713.576 42.7414C711.876 42.2929 710.577 40.8186 709.469 38.0843L709.184 37.3843L708.85 37.4C708.666 37.4086 708.413 37.4643 708.289 37.5243L708.061 37.6329L708.082 38.8272C708.094 39.4843 708.127 40.87 708.155 41.9057L708.207 43.7886L708.586 43.9514ZM699.287 31.4386L700.719 31.3886L700.667 30.37C700.485 26.7772 699.608 24.8129 698.184 24.8157C696.637 24.8157 695.4 26.81 694.887 30.13C694.828 30.4857 694.789 30.8444 694.77 31.2043L694.768 31.5386L696.311 31.5129C697.16 31.4986 698.499 31.4657 699.287 31.4386ZM688.744 36.9729C689.699 41.2386 692.619 44.1386 696.702 44.8757C697.601 45.0386 699.642 45.0414 700.55 44.8829C701.848 44.6543 703.344 44.0772 704.287 43.44C705.44 42.66 706.621 41.4886 706.621 41.1257C706.621 40.9029 706.224 40.3929 706.053 40.3929C705.977 40.3929 705.656 40.56 705.343 40.7643C704.216 41.4929 703.139 41.7929 701.641 41.7929C699.575 41.7929 698.265 41.2786 696.949 39.9472C696.367 39.3572 696.126 39.04 695.825 38.4557C695.163 37.1714 694.804 35.6943 694.75 34.0257L694.727 33.3043L700.817 33.2829L706.907 33.2614L706.936 32.85C706.95 32.6229 706.92 32.03 706.869 31.5314C706.489 27.8272 704.992 25.2757 702.447 23.9986C700.187 22.8643 696.694 22.9457 694.141 24.1929C691.72 25.3743 690.054 27.3457 689.125 30.1286C688.641 31.5772 688.488 32.7429 688.537 34.6229C688.568 35.81 688.622 36.4243 688.744 36.9729ZM676.338 43.2772C676.937 43.1629 677.401 42.9257 677.898 42.4772C679.149 41.35 680.089 39.0272 680.459 36.1486C680.61 34.9743 680.588 32.3029 680.421 31.3243C679.971 28.6772 679.001 26.9372 677.586 26.2357C676.998 25.9457 676.909 25.9243 676.213 25.9243C675.713 25.9243 675.286 25.9786 674.922 26.0857L674.377 26.2472L674.337 29.26C674.286 33.12 674.411 42.7829 674.515 43.06C674.582 43.2357 674.658 43.2743 674.99 43.3C675.775 43.3614 675.903 43.36 676.338 43.2772ZM640.677 43.3172C641.259 43.1429 641.978 42.4686 642.362 41.7343C643.153 40.2172 643.507 37.9772 643.515 34.4157C643.527 29.9543 642.828 27.1157 641.355 25.63C640.736 25.0057 640.296 24.8114 639.505 24.8129C637.749 24.8157 636.635 26.6514 636.194 30.2672C635.992 31.93 635.991 35.89 636.192 37.3429C636.816 41.84 638.427 43.9857 640.676 43.3172H640.677ZM632.616 42.4586C633.95 43.78 635.694 44.6272 637.691 44.9172H637.689C638.405 45.0214 640.659 45.0243 641.397 44.9214C641.747 44.8729 642.352 44.7414 642.741 44.6272C646.359 43.5786 648.828 40.7929 649.677 36.8072C649.884 35.8329 649.969 33.4743 649.838 32.3557C649.406 28.6986 647.858 26.02 645.303 24.5129C642.461 22.8386 638.146 22.7414 635.079 24.2843C632.864 25.3972 631.054 27.5414 630.251 30.0057C629.421 32.5486 629.423 35.8843 630.251 38.48C630.783 40.1414 631.504 41.3543 632.616 42.4586Z" fill="#DADADA"/>
<path fill-rule="evenodd" clip-rule="evenodd" d="M339.353 8.25C337.947 10.1506 332.826 19.0341 329.724 24.4791L329.948 36.465C329.948 36.465 328.959 36.285 328.166 36.285C327.447 36.285 326.376 36.465 326.376 36.465L326.599 24.4791C326.283 23.9324 325.851 23.1729 325.336 22.2698L325.336 22.2697C323.145 18.4241 319.47 11.9735 317.001 8.25C318.538 8.59941 319.181 8.57824 320.72 8.25C322.157 10.7967 324.163 14.096 326.129 17.3297C326.82 18.4671 327.507 19.5964 328.162 20.6819C328.445 20.2165 328.746 19.7214 329.06 19.2063L329.06 19.2062L329.06 19.2061L329.06 19.206L329.06 19.2057C331.497 15.2019 334.665 9.9972 335.603 8.25C336.803 8.56368 338.012 8.55441 339.352 8.25L339.351 8.25132L339.353 8.25ZM430.698 22.47C430.698 30.5832 425.205 35.209 416.794 35.209C406.857 35.209 402.86 29.1896 402.86 22.3496C402.86 14.0471 408.868 9.58147 416.728 9.58147C425.574 9.58147 430.698 14.82 430.698 22.47ZM416.737 10.9699C422.64 10.9699 426.987 14.5579 426.987 22.47C426.987 31.0703 421.729 33.8603 416.747 33.8603C411.425 33.8603 406.576 30.7354 406.576 22.2993C406.576 13.5574 411.95 10.9699 416.737 10.9699ZM431.305 34.8384C431.305 33.8788 431.889 32.9854 433.059 32.9854H433.061C434.18 32.9854 435.019 33.6551 435.019 34.7259C435.019 36.06 434.135 36.5524 433.328 36.5524C432.21 36.5524 431.305 35.9713 431.305 34.8384ZM389.494 12.2801C394.32 12.2801 397.865 15.5691 397.865 22.4422C397.865 29.306 394.325 32.595 389.503 32.595C384.242 32.595 381.152 28.8229 381.152 22.4607C381.152 15.2647 384.96 12.3688 389.287 12.2801H389.494ZM401.539 22.4978C401.539 28.9778 397.578 33.8603 389.469 33.8603C381.968 33.8603 377.446 29.5271 377.446 22.4237C377.446 15.9331 381.587 10.9262 389.481 10.9262C396.809 10.9262 401.539 15.274 401.539 22.4978ZM348.782 25.4546C347.403 21.9776 346.047 18.5113 344.813 15.0715C344.005 17.4009 342.472 21.3543 340.856 25.4519H340.859C343.496 25.5432 346.136 25.5432 348.774 25.4519L348.782 25.4546ZM351.984 33.5638C353.202 33.2567 354.477 33.2544 355.696 33.5572L355.693 33.5559C353.455 29.3775 348.966 18.4438 346.113 11.22C345.187 11.5429 344.432 11.5244 343.523 11.22L343.519 11.2187C340.523 18.7403 337.07 27.2307 333.965 33.5612V33.5638L333.979 33.5585L333.965 33.5612L333.992 33.5519L333.979 33.5572C335.399 33.2065 336.753 33.315 337.648 33.5572L337.643 33.5546L337.647 33.5559C337.988 32.6949 338.349 31.7847 338.721 30.8453L338.722 30.8447C339.215 29.6009 339.728 28.3061 340.242 27.0071L340.246 27.0097C343.297 26.9167 346.349 26.9167 349.4 27.0097L349.692 27.747C350.462 29.6843 351.232 31.6235 351.984 33.5638ZM372.652 11.2279C372.833 14.6996 372.93 18.1738 372.943 21.6507C368.779 21.7474 364.619 21.7566 360.464 21.6507C360.477 18.1738 360.573 14.6996 360.754 11.2279C359.531 11.5264 358.255 11.5264 357.033 11.2279C357.357 18.6847 357.329 26.1282 357.033 33.5612C358.253 33.2634 359.528 33.2634 360.749 33.5612L360.742 33.5572L360.754 33.5612C360.572 30.1017 360.475 26.6383 360.463 23.1741H360.464C364.624 23.1153 368.784 23.1135 372.943 23.1688C372.932 26.6348 372.835 30.1 372.652 33.5612L372.665 33.5572L372.657 33.5612C373.878 33.2634 375.153 33.2634 376.373 33.5612C376.077 26.1282 376.049 18.6847 376.373 11.2279C375.151 11.5264 373.875 11.5264 372.652 11.2279ZM438.722 11.2284C438.803 10.9005 438.889 10.5523 438.889 10.2896H438.891C438.891 9.30485 438.265 8.73176 437.33 8.57691V8.57559C437.33 8.57559 437.098 8.54382 436.942 8.54382C436.049 8.54382 435.163 9.06662 435.163 10.4074C434.634 17.1282 434.082 23.8703 433.174 30.2841L433.17 30.2881H433.178C433.727 30.1928 434.152 30.3357 434.566 30.5025L434.563 30.4999C435.392 25.2588 437.136 17.9197 438.113 13.8112C438.35 12.812 438.542 12.0039 438.664 11.4635C438.682 11.3874 438.702 11.3085 438.722 11.2284Z" fill="#DADADA"/>
<path fill-rule="evenodd" clip-rule="evenodd" d="M383.716 50.6362C382.992 50.6478 382.275 50.4872 381.625 50.1677C381.026 49.8742 380.525 49.4124 380.185 48.8388C379.84 48.2493 379.663 47.5763 379.674 46.8932C379.674 46.1865 379.846 45.5432 380.189 44.9649C380.531 44.387 381.032 43.9201 381.633 43.6202C382.279 43.2961 382.994 43.1327 383.717 43.1437C384.316 43.1413 384.912 43.2274 385.485 43.3991C386.052 43.5712 386.667 43.8465 387.333 44.229V42.2609C386.727 41.9528 386.088 41.7136 385.429 41.5475C384.836 41.4075 384.23 41.3374 383.621 41.3384C382.46 41.3384 381.416 41.574 380.489 42.0438C379.563 42.5137 378.835 43.1821 378.306 44.0503C377.777 44.9185 377.512 45.8966 377.512 46.9872C377.512 48.005 377.768 48.9407 378.282 49.7957C378.785 50.64 379.52 51.3219 380.399 51.7599C381.298 52.2152 382.317 52.4415 383.46 52.4415C384.245 52.4415 384.931 52.3647 385.52 52.2099C386.192 52.0215 386.841 51.7591 387.455 51.4277V49.4596C386.635 49.9029 385.955 50.21 385.415 50.3807C384.865 50.5527 384.292 50.6388 383.716 50.6362ZM383.716 50.6362L383.715 50.6362H383.717L383.716 50.6362ZM357.883 43.1119H354.042V41.4774H363.815V43.1132H359.973V52.3025H357.883V43.1119ZM373.933 47.5921H369.239V50.6679H374.25V52.3038H367.147V41.4774H374.142V43.1132H369.239V45.9562H373.933V47.5921ZM393.284 46.0343H398.898V41.4774H400.988V52.3025H398.898V47.731H393.283V52.3038H391.192V41.4774H393.284V46.0343Z" fill="#DADADA"/>
<path fill-rule="evenodd" clip-rule="evenodd" d="M0 15V45H29.3664V15H0ZM4.45994 30.8934C3.71094 27.1612 2.96187 23.4287 2.16201 19.7085C2.90636 19.7127 3.65071 19.7122 4.39506 19.7117H4.39541C4.99076 19.7114 5.58611 19.711 6.18146 19.713C7.0355 25.264 7.95729 30.8045 8.94662 36.333C9.11166 35.919 9.25869 35.502 9.35771 35.067C9.92811 32.272 10.5241 29.4812 11.1202 26.6897L11.1203 26.6894C11.5246 24.7964 11.9289 22.9029 12.3254 21.0075L12.3469 20.9198C12.4635 20.4411 12.6212 19.7939 13.2001 19.7445C14.2843 19.6769 15.3717 19.6769 16.4559 19.7445C17.1053 20.0455 17.2204 20.7577 17.3297 21.435L17.3297 21.435C17.3697 21.6824 17.4089 21.9252 17.4731 22.1415C17.8762 23.9368 18.2439 25.742 18.6115 27.5472L18.6116 27.5474C19.2128 30.4992 19.8139 33.4508 20.5699 36.3585C21.224 33.0226 21.7698 29.6671 22.3156 26.3113L22.3156 26.3113L22.3156 26.3112C22.6737 24.1095 23.0318 21.9078 23.4205 19.7115C23.7555 19.7115 24.0906 19.7118 24.4258 19.7122C25.3203 19.7131 26.2158 19.714 27.1129 19.7085C26.2253 23.8395 25.4055 27.9883 24.5859 32.1359C24.1449 34.3677 23.7039 36.5993 23.2525 38.8275C23.2282 38.9226 23.2076 39.0215 23.1868 39.1213C23.097 39.5517 23.0036 39.9994 22.5968 40.2405C21.1943 40.4251 19.7738 40.4286 18.3703 40.251C17.9803 40.0101 17.8823 39.5721 17.7885 39.1524C17.7642 39.0441 17.7403 38.9371 17.7117 38.835C17.3325 37.0893 16.9691 35.34 16.6058 33.5907L16.6057 33.5906L16.6057 33.5905C15.9943 30.6473 15.3829 27.7039 14.696 24.777C14.5069 25.137 14.3809 25.53 14.3119 25.932C13.861 28.1667 13.3887 30.3975 12.9164 32.6284C12.4693 34.74 12.0222 36.8517 11.5932 38.967L11.5769 39.0347C11.4493 39.5653 11.267 40.3236 10.594 40.302C9.3022 40.3905 7.98789 40.4415 6.70809 40.236C6.21605 39.897 6.13368 39.3286 6.05242 38.7679C6.01648 38.52 5.98075 38.2735 5.9099 38.049C5.41776 35.6661 4.93886 33.2798 4.45994 30.8934ZM36.8172 19.5105C41.5493 19.5 46.2769 19.5 51.0046 19.5105C51.0226 20.736 51.0226 21.966 51.0091 23.1945C49.8011 23.2032 48.5932 23.2017 47.3858 23.2002H47.3857H47.3856H47.3855H47.3854H47.3853H47.3853H47.3848H47.3846H47.3843H47.3841H47.3838H47.3836H47.3833H47.3831C46.9192 23.1996 46.4555 23.199 45.9919 23.199C45.9994 27.732 45.9994 32.268 45.9919 36.801C46.4096 36.801 46.8273 36.8005 47.2452 36.8001H47.2454H47.2457H47.2459H47.2461H47.2463H47.2465H47.2467C48.5006 36.7987 49.7555 36.7972 51.0121 36.8085C51.0196 38.034 51.0226 39.264 51.0046 40.4895C46.2769 40.5 41.5493 40.5 36.8202 40.4895C36.8027 39.2616 36.8017 38.0335 36.8172 36.8055C38.0255 36.7968 39.2339 36.7983 40.4416 36.7998H40.4419H40.4421H40.4424H40.4426H40.4428H40.4431H40.4433C40.9071 36.8004 41.3708 36.801 41.8344 36.801C41.8271 32.267 41.8271 27.733 41.8344 23.199C41.3697 23.199 40.9049 23.1996 40.4402 23.2002C39.2321 23.2017 38.0243 23.2032 36.8172 23.1945C36.8022 21.9645 36.8022 20.7405 36.8172 19.5105ZM58.4583 15V45H87.8263V15H58.4583ZM65.0929 19.713V40.29H69.1634V32.241C70.1313 32.2443 71.0995 32.2424 72.0679 32.2405H72.068H72.0682H72.0684H72.0686H72.0688C73.3066 32.238 74.5448 32.2356 75.7829 32.244C76.5871 32.1675 77.5458 32.742 77.5278 33.627C77.5925 35.0375 77.6928 36.445 77.7931 37.8525L77.7932 37.8529L77.7932 37.8533L77.7932 37.8537L77.7932 37.8541L77.7932 37.8545C77.8511 38.6661 77.9089 39.4777 77.9599 40.29H77.9624C79.2534 40.29 80.5414 40.29 81.8309 40.293C81.6805 39.2553 81.6687 38.2034 81.6569 37.1525C81.64 35.6543 81.6232 34.1584 81.2052 32.709C80.87 31.5264 79.6454 31.184 78.5877 30.8882C78.4903 30.8609 78.3943 30.8341 78.3005 30.807C78.5831 30.6568 78.893 30.5532 79.2025 30.4497C79.7986 30.2504 80.3931 30.0517 80.7881 29.5215C81.6583 28.4175 81.7213 26.943 81.7258 25.596L81.7239 25.3686C81.7119 23.8588 81.6989 22.2296 80.7491 20.9715C79.9509 19.875 78.4581 19.713 77.2068 19.713C74.5165 19.711 71.8242 19.7117 69.1322 19.7123H69.1309H69.1307H69.1305H69.1304H69.1302H69.13C67.7841 19.7127 66.4384 19.713 65.0929 19.713ZM72.1873 23.0912C71.1792 23.0996 70.171 23.1081 69.1634 23.0925V29.052C70.0795 29.0396 70.9966 29.0469 71.9136 29.0543H71.9137H71.9138H71.9138H71.9139C73.4327 29.0665 74.9517 29.0786 76.4671 29.001C77.7172 28.9264 77.7879 27.4887 77.8363 26.504L77.8429 26.373C77.8362 26.1932 77.8361 26.0036 77.8361 25.809V25.8084C77.8359 24.836 77.8357 23.7416 76.9982 23.148C75.3974 23.0642 73.7926 23.0777 72.1873 23.0912ZM93.073 19.515C98.8704 19.497 104.666 19.497 110.467 19.515C110.471 20.8534 110.47 22.1917 110.469 23.5301C110.469 24.4672 110.468 25.4044 110.47 26.3415H106.704C106.701 25.2915 106.701 24.2445 106.708 23.199C104.44 23.202 102.174 23.202 99.9056 23.199C99.8998 24.4228 99.9003 25.6456 99.9008 26.869V26.8691V26.8692V26.8694L99.9011 27.918H105.391V31.419H99.9011C99.9037 32.0368 99.9024 32.6549 99.9011 33.2731C99.8985 34.4531 99.896 35.6333 99.9206 36.8115C101.437 36.7949 102.955 36.7974 104.473 36.7999C105.283 36.8012 106.092 36.8026 106.902 36.801C106.899 35.6055 106.899 34.4085 106.902 33.2115C108.179 33.1965 109.457 33.1965 110.734 33.2085C110.734 33.8854 110.735 34.5622 110.736 35.2391C110.74 36.9877 110.744 38.7364 110.723 40.485C104.839 40.503 98.9574 40.503 93.073 40.485C93.055 39.2595 93.058 38.034 93.07 36.8085C94.0017 36.7984 94.9335 36.7974 95.8652 36.8055C95.8832 32.268 95.8832 27.7305 95.8652 23.1945C94.932 23.202 93.9987 23.202 93.0655 23.184C93.0568 21.961 93.0593 20.738 93.073 19.515ZM117.01 15V45H146.742V15H117.01ZM123.644 19.713V40.29C124.935 40.2872 126.226 40.2886 127.516 40.2901C129.645 40.2924 131.774 40.2948 133.905 40.278C136.013 40.2375 138.468 39.846 139.739 37.959C140.891 36.1151 141.012 33.9489 141.131 31.8185V31.8182C141.165 31.2104 141.199 30.6056 141.257 30.012C141.197 29.4075 141.163 28.7909 141.129 28.1713L141.129 28.1706V28.1705C141.011 26.0458 140.891 23.8845 139.739 22.044C138.556 20.277 136.294 19.812 134.307 19.74C132.063 19.7021 129.818 19.7073 127.572 19.7125C126.263 19.7155 124.953 19.7185 123.644 19.713ZM130.549 23.0928C129.604 23.0949 128.658 23.097 127.713 23.0925V36.9075C128.995 36.9047 130.276 36.9065 131.558 36.9083C132.359 36.9094 133.161 36.9105 133.964 36.9105C134.961 36.93 136.174 36.666 136.642 35.67C137.194 34.4537 137.202 33.1156 137.21 31.7964C137.213 31.4464 137.215 31.0977 137.227 30.753C137.206 30.1929 137.213 29.6261 137.219 29.0578C137.237 27.5413 137.254 26.0145 136.751 24.5775C136.441 23.568 135.317 23.0895 134.333 23.1C133.072 23.0871 131.81 23.09 130.549 23.0928Z" fill="#DADADA"/>
</svg>
