<svg width="147" height="30" viewBox="0 0 147 30" fill="none" xmlns="http://www.w3.org/2000/svg">
<path fill-rule="evenodd" clip-rule="evenodd" d="M0 0V30H29.3664V0H0ZM4.45994 15.8934C3.71094 12.1612 2.96187 8.42872 2.16201 4.7085C2.90636 4.71267 3.65071 4.7122 4.39506 4.71174H4.39541C4.99076 4.71137 5.58611 4.711 6.18146 4.713C7.0355 10.264 7.95729 15.8045 8.94662 21.333C9.11166 20.919 9.25869 20.502 9.35771 20.067C9.92811 17.272 10.5241 14.4812 11.1202 11.6897L11.1203 11.6894C11.5246 9.79635 11.9289 7.90291 12.3254 6.0075L12.3469 5.91979C12.4635 5.44114 12.6212 4.79391 13.2001 4.7445C14.2843 4.67686 15.3717 4.67686 16.4559 4.7445C17.1053 5.04553 17.2204 5.75774 17.3297 6.43499L17.3297 6.43504C17.3697 6.68244 17.4089 6.92518 17.4731 7.1415C17.8762 8.93678 18.2439 10.742 18.6115 12.5472L18.6116 12.5474C19.2128 15.4992 19.8139 18.4508 20.5699 21.3585C21.224 18.0226 21.7698 14.6671 22.3156 11.3113L22.3156 11.3113L22.3156 11.3112C22.6737 9.10953 23.0318 6.90781 23.4205 4.7115C23.7555 4.7115 24.0906 4.71183 24.4258 4.71217C25.3203 4.71306 26.2158 4.71396 27.1129 4.7085C26.2253 8.83952 25.4055 12.9883 24.5859 17.1359C24.1449 19.3677 23.7039 21.5993 23.2525 23.8275C23.2282 23.9226 23.2076 24.0215 23.1868 24.1213C23.097 24.5517 23.0036 24.9994 22.5968 25.2405C21.1943 25.4251 19.7738 25.4286 18.3703 25.251C17.9803 25.0101 17.8823 24.5721 17.7885 24.1524C17.7642 24.0441 17.7403 23.9371 17.7117 23.835C17.3325 22.0893 16.9691 20.34 16.6058 18.5907L16.6057 18.5906L16.6057 18.5905C15.9943 15.6473 15.3829 12.7039 14.696 9.777C14.5069 10.137 14.3809 10.53 14.3119 10.932C13.861 13.1667 13.3887 15.3975 12.9164 17.6284C12.4693 19.74 12.0222 21.8517 11.5932 23.967L11.5769 24.0347C11.4493 24.5653 11.267 25.3236 10.594 25.302C9.3022 25.3905 7.98789 25.4415 6.70809 25.236C6.21605 24.897 6.13368 24.3286 6.05242 23.7679C6.01648 23.52 5.98075 23.2735 5.9099 23.049C5.41776 20.6661 4.93886 18.2798 4.45994 15.8934ZM36.8172 4.5105C41.5493 4.5 46.2769 4.5 51.0046 4.5105C51.0226 5.736 51.0226 6.966 51.0091 8.1945C49.8011 8.20317 48.5932 8.20166 47.3858 8.20016H47.3857H47.3856H47.3855H47.3854H47.3853H47.3853H47.3848H47.3846H47.3843H47.3841H47.3838H47.3836H47.3833H47.3831C46.9192 8.19958 46.4555 8.199 45.9919 8.199C45.9994 12.732 45.9994 17.268 45.9919 21.801C46.4096 21.801 46.8273 21.8005 47.2452 21.8001H47.2454H47.2457H47.2459H47.2461H47.2463H47.2465H47.2467C48.5006 21.7987 49.7555 21.7972 51.0121 21.8085C51.0196 23.034 51.0226 24.264 51.0046 25.4895C46.2769 25.5 41.5493 25.5 36.8202 25.4895C36.8027 24.2616 36.8017 23.0335 36.8172 21.8055C38.0255 21.7968 39.2339 21.7983 40.4416 21.7998H40.4419H40.4421H40.4424H40.4426H40.4428H40.4431H40.4433C40.9071 21.8004 41.3708 21.801 41.8344 21.801C41.8271 17.267 41.8271 12.733 41.8344 8.199C41.3697 8.199 40.9049 8.19958 40.4402 8.20016C39.2321 8.20166 38.0243 8.20317 36.8172 8.1945C36.8022 6.9645 36.8022 5.7405 36.8172 4.5105ZM58.4583 0V30H87.8263V0H58.4583ZM65.0929 4.713V25.29H69.1634V17.241C70.1313 17.2443 71.0995 17.2424 72.0679 17.2405H72.068H72.0682H72.0684H72.0686H72.0688C73.3066 17.238 74.5448 17.2356 75.7829 17.244C76.5871 17.1675 77.5458 17.742 77.5278 18.627C77.5925 20.0375 77.6928 21.445 77.7931 22.8525L77.7932 22.8529L77.7932 22.8533L77.7932 22.8537L77.7932 22.8541L77.7932 22.8545C77.8511 23.6661 77.9089 24.4777 77.9599 25.29H77.9624C79.2534 25.29 80.5414 25.29 81.8309 25.293C81.6805 24.2553 81.6687 23.2034 81.6569 22.1525C81.64 20.6543 81.6232 19.1584 81.2052 17.709C80.87 16.5264 79.6454 16.184 78.5877 15.8882C78.4903 15.8609 78.3943 15.8341 78.3005 15.807C78.5831 15.6568 78.893 15.5532 79.2025 15.4497C79.7986 15.2504 80.3931 15.0517 80.7881 14.5215C81.6583 13.4175 81.7213 11.943 81.7258 10.596L81.7239 10.3686C81.7119 8.85878 81.6989 7.22957 80.7491 5.9715C79.9509 4.875 78.4581 4.713 77.2068 4.713C74.5165 4.711 71.8242 4.71167 69.1322 4.71233H69.1309H69.1307H69.1305H69.1304H69.1302H69.13C67.7841 4.71267 66.4384 4.713 65.0929 4.713ZM72.1873 8.09116C71.1792 8.09964 70.171 8.10812 69.1634 8.0925V14.052C70.0795 14.0396 70.9966 14.0469 71.9136 14.0543H71.9137H71.9138H71.9138H71.9139C73.4327 14.0665 74.9517 14.0786 76.4671 14.001C77.7172 13.9264 77.7879 12.4887 77.8363 11.504L77.8429 11.373C77.8362 11.1932 77.8361 11.0036 77.8361 10.809V10.8084C77.8359 9.83604 77.8357 8.74161 76.9982 8.148C75.3974 8.06415 73.7926 8.07765 72.1873 8.09116ZM93.073 4.515C98.8704 4.497 104.666 4.497 110.467 4.515C110.471 5.85337 110.47 7.19174 110.469 8.53011C110.469 9.46724 110.468 10.4044 110.47 11.3415H106.704C106.701 10.2915 106.701 9.2445 106.708 8.199C104.44 8.202 102.174 8.202 99.9056 8.199C99.8998 9.42277 99.9003 10.6456 99.9008 11.869V11.8691V11.8692V11.8694L99.9011 12.918H105.391V16.419H99.9011C99.9037 17.0368 99.9024 17.6549 99.9011 18.2731C99.8985 19.4531 99.896 20.6333 99.9206 21.8115C101.437 21.7949 102.955 21.7974 104.473 21.7999C105.283 21.8012 106.092 21.8026 106.902 21.801C106.899 20.6055 106.899 19.4085 106.902 18.2115C108.179 18.1965 109.457 18.1965 110.734 18.2085C110.734 18.8854 110.735 19.5622 110.736 20.2391C110.74 21.9877 110.744 23.7364 110.723 25.485C104.839 25.503 98.9574 25.503 93.073 25.485C93.055 24.2595 93.058 23.034 93.07 21.8085C94.0017 21.7984 94.9335 21.7974 95.8652 21.8055C95.8832 17.268 95.8832 12.7305 95.8652 8.1945C94.932 8.202 93.9987 8.202 93.0655 8.184C93.0568 6.961 93.0593 5.73795 93.073 4.515ZM117.01 0V30H146.742V0H117.01ZM123.644 4.713V25.29C124.935 25.2872 126.226 25.2886 127.516 25.2901C129.645 25.2924 131.774 25.2948 133.905 25.278C136.013 25.2375 138.468 24.846 139.739 22.959C140.891 21.1151 141.012 18.9489 141.131 16.8185V16.8182C141.165 16.2104 141.199 15.6056 141.257 15.012C141.197 14.4075 141.163 13.7909 141.129 13.1713L141.129 13.1706V13.1705C141.011 11.0458 140.891 8.88447 139.739 7.044C138.556 5.277 136.294 4.812 134.307 4.74C132.063 4.7021 129.818 4.70729 127.572 4.71248C126.263 4.7155 124.953 4.71853 123.644 4.713ZM130.549 8.09278C129.604 8.09489 128.658 8.097 127.713 8.0925V21.9075C128.995 21.9047 130.276 21.9065 131.558 21.9083C132.359 21.9094 133.161 21.9105 133.964 21.9105C134.961 21.93 136.174 21.666 136.642 20.67C137.194 19.4537 137.202 18.1156 137.21 16.7964C137.213 16.4464 137.215 16.0977 137.227 15.753C137.206 15.1929 137.213 14.6261 137.219 14.0578C137.237 12.5413 137.254 11.0145 136.751 9.5775C136.441 8.568 135.317 8.0895 134.333 8.1C133.072 8.08714 131.81 8.08996 130.549 8.09278Z" fill="#DADADA"/>
</svg>
