<svg width="52" height="12" viewBox="0 0 52 12" fill="none" xmlns="http://www.w3.org/2000/svg">
<path fill-rule="evenodd" clip-rule="evenodd" d="M41 6C41 8.76142 43.2386 11 46 11C48.7614 11 51 8.76142 51 6C51 3.23858 48.7614 1 46 1C43.2386 1 41 3.23858 41 6Z" stroke="white"/>
<path fill-rule="evenodd" clip-rule="evenodd" d="M21 6C21 8.76142 23.2386 11 26 11C28.7614 11 31 8.76142 31 6C31 3.23858 28.7614 1 26 1C23.2386 1 21 3.23858 21 6Z" stroke="white"/>
<path fill-rule="evenodd" clip-rule="evenodd" d="M1 6C1 8.76142 3.23858 11 6 11C8.76142 11 11 8.76142 11 6C11 3.23858 8.76142 1 6 1C3.23858 1 1 3.23858 1 6Z" fill="white" stroke="white"/>
</svg>
