<svg width="194" height="42" viewBox="0 0 194 42" fill="none" xmlns="http://www.w3.org/2000/svg">
<path fill-rule="evenodd" clip-rule="evenodd" d="M42 21C42 32.598 32.598 42 21 42C9.40202 42 0 32.598 0 21C0 9.40202 9.40202 0 21 0C32.598 0 42 9.40202 42 21ZM15.2103 16.4718C15.2103 15.74 15.8129 15.2079 16.6427 15.2079C17.4462 15.2079 18.0369 15.7224 18.0752 16.4568C18.0752 17.2193 17.4725 17.7616 16.6427 17.7616C15.8273 17.7616 15.2103 17.2061 15.2103 16.4718ZM15.4471 18.2759C15.3155 18.2759 15.2079 18.391 15.2079 18.5318V25.9521C15.2079 26.0928 15.3155 26.2079 15.4471 26.2079H17.8384C17.9699 26.2079 18.0775 26.0928 18.0775 25.9521V18.5318C18.0775 18.391 17.9699 18.2759 17.8384 18.2759H15.4471ZM18.7949 18.5318C18.7949 18.391 18.9025 18.2759 19.034 18.2759H21.4253C21.5568 18.2759 21.6644 18.391 21.6644 18.5318V18.9131C22.0494 18.6239 22.6853 18.2759 23.527 18.2759C25.3779 18.2759 26.2079 19.9467 26.2079 21.6022V25.9521C26.2079 26.0928 26.1003 26.2079 25.9688 26.2079H23.8166C23.6846 26.2079 23.5775 26.0933 23.5775 25.9521V21.986C23.5775 21.3796 23.1421 20.8857 22.5873 20.8396C22.5593 20.8346 22.5314 20.8346 22.5033 20.8346H22.5014H22.4995C22.4714 20.8346 22.4435 20.8346 22.4155 20.8396C21.8607 20.8857 21.4253 21.3796 21.4253 21.986V22.05V22.114V25.9521C21.4253 26.0933 21.3182 26.2079 21.1862 26.2079H19.034C18.9025 26.2079 18.7949 26.0928 18.7949 25.9521V18.5318Z" fill="white"/>
<path fill-rule="evenodd" clip-rule="evenodd" d="M143 21C143 32.598 133.598 42 122 42C110.402 42 101 32.598 101 21C101 9.40202 110.402 0 122 0C133.598 0 143 9.40202 143 21ZM127.334 18.4823C127.832 18.4203 128.306 18.2851 128.748 18.0841C128.418 18.5913 128 19.0365 127.519 19.3897C127.524 19.4987 127.526 19.6076 127.526 19.7185C127.526 23.0531 125.049 26.9005 120.521 26.9005C119.131 26.9005 117.836 26.4835 116.748 25.7677C116.94 25.7902 117.134 25.8015 117.334 25.8015C118.488 25.8015 119.55 25.3995 120.391 24.7213C119.314 24.7025 118.406 23.9698 118.092 22.9685C118.243 22.9986 118.396 23.0136 118.556 23.0136C118.781 23.0136 118.997 22.9836 119.204 22.9253C118.078 22.6924 117.23 21.6723 117.23 20.4493V20.4173C117.561 20.6071 117.94 20.7198 118.345 20.733C117.684 20.2802 117.25 19.5081 117.25 18.6326C117.25 18.1686 117.371 17.7346 117.583 17.3608C118.798 18.8881 120.611 19.8951 122.657 20.0003C122.615 19.8162 122.593 19.6227 122.593 19.4254C122.593 18.0315 123.696 16.9005 125.055 16.9005C125.764 16.9005 126.403 17.2067 126.852 17.6971C127.412 17.5843 127.94 17.3739 128.416 17.0846C128.233 17.6745 127.841 18.1686 127.334 18.4823Z" fill="white"/>
<path fill-rule="evenodd" clip-rule="evenodd" d="M173 42C184.598 42 194 32.598 194 21C194 9.40202 184.598 0 173 0C161.402 0 152 9.40202 152 21C152 32.598 161.402 42 173 42ZM169.244 15.7479C165.872 15.7479 163.137 18.4345 163.137 21.7479C163.137 25.0612 165.872 27.7479 169.244 27.7479C172.617 27.7479 175.352 25.0612 175.352 21.7479C175.352 21.3362 175.306 20.9345 175.226 20.5479L175.192 20.4145H169.244V22.4145H173.316C172.992 24.3062 171.261 25.7479 169.244 25.7479C166.995 25.7479 165.173 23.9579 165.173 21.7479C165.173 19.5379 166.995 17.7479 169.244 17.7479C170.262 17.7479 171.19 18.1179 171.904 18.7245L173.363 17.3212C172.278 16.3445 170.832 15.7479 169.244 15.7479ZM178.744 20.4145V18.4145H180.102V20.4145H182.137V21.7479H180.102V23.7479H178.744V21.7479H176.709V20.4145H178.744Z" fill="white"/>
<path fill-rule="evenodd" clip-rule="evenodd" d="M92 21C92 32.598 82.598 42 71 42C59.402 42 50 32.598 50 21C50 9.40202 59.402 0 71 0C82.598 0 92 9.40202 92 21ZM72.6556 18.9H75L74.6947 21.6972L72.6556 21.6979V28H69.9952V21.6993L68 21.7V18.9H69.9952V17.2893C69.9952 15.1599 71.3121 14 73.1165 14C73.725 13.9986 74.3329 14.0308 74.9375 14.0966V16.3226H73.6951C72.7114 16.3226 72.6556 16.7776 72.6556 17.5V18.9Z" fill="white"/>
</svg>
