<svg width="42" height="42" viewBox="0 0 42 42" fill="none" xmlns="http://www.w3.org/2000/svg">
<path fill-rule="evenodd" clip-rule="evenodd" d="M42 21C42 32.598 32.598 42 21 42C9.40202 42 0 32.598 0 21C0 9.40202 9.40202 0 21 0C32.598 0 42 9.40202 42 21ZM26.3337 18.4823C26.832 18.4203 27.3064 18.2851 27.7479 18.0841C27.4181 18.5913 27.0005 19.0365 26.5187 19.3897C26.5242 19.4987 26.5261 19.6076 26.5261 19.7185C26.5261 23.0531 24.0495 26.9005 19.5213 26.9005C18.131 26.9005 16.8359 26.4835 15.7479 25.7677C15.9402 25.7902 16.1344 25.8015 16.334 25.8015C17.4881 25.8015 18.5505 25.3995 19.3913 24.7213C18.3142 24.7025 17.4056 23.9698 17.0924 22.9685C17.2426 22.9986 17.3965 23.0136 17.5558 23.0136C17.7811 23.0136 17.9973 22.9836 18.2043 22.9253C17.0777 22.6924 16.2296 21.6723 16.2296 20.4493V20.4173C16.5612 20.6071 16.9404 20.7198 17.3452 20.733C16.6839 20.2802 16.2498 19.5081 16.2498 18.6326C16.2498 18.1686 16.3707 17.7346 16.5832 17.3608C17.7976 18.8881 19.6111 19.8951 21.6572 20.0003C21.6151 19.8162 21.5931 19.6227 21.5931 19.4254C21.5931 18.0315 22.6958 16.9005 24.055 16.9005C24.7639 16.9005 25.4032 17.2067 25.852 17.6971C26.4125 17.5843 26.9401 17.3739 27.4163 17.0846C27.2331 17.6745 26.8411 18.1686 26.3337 18.4823Z" fill="white"/>
</svg>
